<svg xmlns="http://www.w3.org/2000/svg" width="26" height="26" viewBox="0 0 26 26">
  <path id="arrow_circle" data-name="arrow circle" d="M13416.5-5735a12.92,12.92,0,0,1-9.193-3.808,12.919,12.919,0,0,1-3.808-9.192,12.916,12.916,0,0,1,3.808-9.193,12.913,12.913,0,0,1,9.193-3.807,12.912,12.912,0,0,1,9.193,3.807,12.914,12.914,0,0,1,3.806,9.193,12.917,12.917,0,0,1-3.806,9.192A12.918,12.918,0,0,1,13416.5-5735Zm-5.325-14.18a1.033,1.033,0,0,0-.964,1.154,1.035,1.035,0,0,0,.964,1.156h7.855c-.5.476-1.01.966-1.443,1.383l-1.062,1.016-.011.01a1.02,1.02,0,0,0-.255,1.164,1.145,1.145,0,0,0,1.007.748.949.949,0,0,0,.658-.285l3.536-3.38.008-.008.764-.732a1.088,1.088,0,0,0,.558-1.021v-.051a1.073,1.073,0,0,0-.558-1.019c-1.251-1.2-2.62-2.511-4.308-4.126a.949.949,0,0,0-.655-.284,1.147,1.147,0,0,0-1.01.749,1.02,1.02,0,0,0,.255,1.164l1.232,1.181,1.231,1.181Z" transform="translate(-13403.504 5760.999)" fill="#7093a8"/>
</svg>
