<svg xmlns="http://www.w3.org/2000/svg" width="40" height="38" viewBox="0 0 40 38">
  <path id="Контур_441" data-name="Контур 441" d="M4290.826-4646a4.386,4.386,0,0,1-4.342-4.418,4.391,4.391,0,0,1,4.337-4.429,4.382,4.382,0,0,1,4.33,4.422A4.381,4.381,0,0,1,4290.826-4646Zm-14.631,0a4.386,4.386,0,0,1-4.335-4.425,4.384,4.384,0,0,1,4.335-4.422,4.384,4.384,0,0,1,4.33,4.422A4.384,4.384,0,0,1,4276.195-4646Zm16.319-10.348h-16.855a4.864,4.864,0,0,1-4.766-4.048l-2.581-14.471a.54.54,0,0,1-.019-.134l-1.116-6.3h-4.849a1.341,1.341,0,0,1-1.328-1.352,1.339,1.339,0,0,1,1.328-1.347h5.974a1.317,1.317,0,0,1,1.29,1.105l1.126,6.343h28.963v.014a1.31,1.31,0,0,1,1.045.525,1.384,1.384,0,0,1,.233,1.162l-3.75,14.8A4.871,4.871,0,0,1,4292.514-4656.348Zm-12.42-8.6a.268.268,0,0,0-.267.268v.9a.269.269,0,0,0,.267.27h1.156v1.167a.268.268,0,0,0,.267.268h1.3a.267.267,0,0,0,.266-.268v-1.167h3.587a.269.269,0,0,0,.268-.27v-.9a.268.268,0,0,0-.268-.268h-3.587v-.719h2.063a3.093,3.093,0,0,0,3.214-3.251,3.073,3.073,0,0,0-3.214-3.21h-3.631a.269.269,0,0,0-.267.27v4.636h-1.156a.269.269,0,0,0-.267.269v1.018a.269.269,0,0,0,.267.269h1.156v.719Zm4.712-2.275h-1.721v-3.363h1.75a1.546,1.546,0,0,1,1.664,1.668A1.572,1.572,0,0,1,4284.805-4667.222Z" transform="translate(-4261 4684)" fill="#a2b6c2"/>
</svg>
