<svg xmlns="http://www.w3.org/2000/svg" width="42.422" height="26" viewBox="0 0 42.422 26">
  <path id="Контур_442" data-name="Контур 442" d="M3910.684-4658h-36.948a2.74,2.74,0,0,1-2.737-2.737v-20.526a2.74,2.74,0,0,1,2.737-2.737h36.948a2.74,2.74,0,0,1,2.737,2.737v20.526A2.74,2.74,0,0,1,3910.684-4658Zm-33.9-16.16h0l-.645.788-.126.153-.225.274v.017l.024.018,0,0a.348.348,0,0,1,.046.036,4.1,4.1,0,0,0,1.335.854,5.259,5.259,0,0,0,1.827.332,5.244,5.244,0,0,0,1.082-.113,3.821,3.821,0,0,0,3-2.591c.006-.018.011-.036.017-.053s.014-.048.023-.072l-.016,0a.049.049,0,0,0-.017,0h-.51c-.514,0-.886,0-1.27,0a.1.1,0,0,0-.074.054,1.924,1.924,0,0,1-1.174.991,3.655,3.655,0,0,1-1.09.174,3.345,3.345,0,0,1-2.041-.721c-.036-.027-.07-.055-.106-.084l0,0-.026-.021Zm4.872-.9c.054,0,.1,0,.139,0h.016c.064,0,.091-.027.1-.1a5.287,5.287,0,0,0-.018-1.446.079.079,0,0,0-.057-.052c-.072,0-.143,0-.2,0h-.166c0,.079.01.157.016.244v0c.013.188.026.366.027.546s-.009.354-.02.539c-.005.087-.01.176-.014.265h.178Zm.692,0c.048,0,.1,0,.16,0h.006c.049,0,.071-.02.08-.073a5.176,5.176,0,0,0-.009-1.47.085.085,0,0,0-.059-.053c-.07,0-.14,0-.2,0h-.179a5.526,5.526,0,0,1,0,1.6h.2Zm.512,0h.175c.053,0,.116,0,.182,0,.021,0,.056-.038.059-.063a4.825,4.825,0,0,0,0-1.472c0-.021-.031-.056-.047-.056-.067,0-.135,0-.194,0h-.19c0,.08.01.16.016.237v.019c.013.185.026.36.027.538s-.009.368-.02.561c0,.08-.009.161-.013.243Zm-1.717-1.4H3878.6a.514.514,0,0,0-.061,0h0l-.021,0a5.156,5.156,0,0,0-.006,1.184h2.727a6.314,6.314,0,0,0,0-1.115C3881.236-4676.448,3881.2-4676.453,3881.143-4676.453Zm2.428.153v.891H3884v-.891Zm-4.49-1.989a4.034,4.034,0,0,1,.821.089,1.952,1.952,0,0,1,1.355.968.129.129,0,0,0,.1.046c.311,0,.641,0,1.038,0h.713l.035,0-.008-.029,0-.007v0c-.007-.026-.013-.05-.022-.073a3.662,3.662,0,0,0-3.043-2.521c-.131-.023-.268-.039-.388-.052l-.173-.02h-.638l-.121.014-.057.007h-.01c-.125.014-.255.029-.382.05a4.515,4.515,0,0,0-2.1.892l-.119.1-.038.031.277.353.046.059c.235.3.447.568.66.842l.066-.051,0,0,.006,0c.037-.029.073-.058.11-.083A3.179,3.179,0,0,1,3879.081-4678.289Zm1.738,2.626h-1.895v-.385h1.895v.384Z" transform="translate(-3871 4684)" fill="#a2b6c2"/>
</svg>
