<svg xmlns="http://www.w3.org/2000/svg" width="43" height="36" viewBox="0 0 43 36">
  <path id="Контур_11" data-name="Контур 11" d="M36.62,8.963A59.949,59.949,0,0,0,21.857,7.17,58.726,58.726,0,0,0,7.237,8.963C2.793,10.158.5,11.95.5,14.191V28.979c0,2.091,2.293,3.884,6.737,5.228A59.949,59.949,0,0,0,22,36a53.55,53.55,0,0,0,14.763-1.793c4.443-1.2,6.737-2.988,6.737-5.228V14.191C43.357,12.1,41.063,10.307,36.62,8.963ZM21.857,33.61c-12.47,0-19.35-3.137-19.35-4.631,0-1.643,6.88-4.631,19.35-4.631s19.35,3.137,19.35,4.631S34.47,33.61,21.857,33.61Zm19.35-7.917a19.749,19.749,0,0,0-4.587-1.942,59.949,59.949,0,0,0-14.763-1.793A53.55,53.55,0,0,0,7.093,23.751a17.366,17.366,0,0,0-4.587,1.942v-11.5c0-1.643,6.88-4.631,19.35-4.631s19.35,3.137,19.35,4.631v11.5ZM39.057,7.32V4.929S37.337,0,21.427,0C6.52,0,4.8,4.631,4.8,4.631V7.32s5.447-2.838,16.77-2.988C32.75,4.183,39.057,7.32,39.057,7.32Z" transform="translate(-0.5)" fill="#373737"/>
</svg>
