<svg xmlns="http://www.w3.org/2000/svg" width="22" height="53" viewBox="0 0 22 53">
  <path id="floor_lamp" data-name="floor lamp" d="M54.506,30.047,51.275,7.154a.933.933,0,0,0-.926-.8H36.735a.934.934,0,0,0-.927.8L32.557,30.2a.924.924,0,0,0,.221.74.935.935,0,0,0,.705.32h9.123V49H41.46a.935.935,0,0,0-.917.743l-.66,3.2H37.954a1.745,1.745,0,0,0-1.748,1.739v2.931a1.746,1.746,0,0,0,1.748,1.74H49.13a1.746,1.746,0,0,0,1.748-1.74V54.682a1.746,1.746,0,0,0-1.748-1.739H47.2l-.659-3.2A.934.934,0,0,0,45.624,49H44.477V31.256h9.136a.931.931,0,0,0,.893-1.209Zm-5.5,27.443H38.077V54.8h8.361a.028.028,0,0,1,.012,0h2.557Zm-3.716-4.548h-3.5l.429-2.08h2.639ZM34.559,29.394,37.548,8.213H49.535l2.989,21.181Z" transform="translate(-32.548 -6.352)" fill="#373737"/>
</svg>
