<svg xmlns="http://www.w3.org/2000/svg" width="43" height="43" viewBox="0 0 43 43">
  <path id="bra" d="M66.551,42.861a2.377,2.377,0,0,0-1.254.378l-6.433,4.023a3.268,3.268,0,0,0-1.514,2.553v1.458h-9.2a3.427,3.427,0,0,1-3.657-3.125V38.555H57.6a1.19,1.19,0,0,0,1.273-1.087.949.949,0,0,0-.094-.413L54.1,19.7a1.247,1.247,0,0,0-1.24-.843H31.322a1.247,1.247,0,0,0-1.239.843L25.349,37.223a.967.967,0,0,0,.243.921,1.363,1.363,0,0,0,1,.41H41.944v9.591c0,2.922,2.782,5.3,6.2,5.3h9.2V54.9a3.272,3.272,0,0,0,1.514,2.553L65.3,61.478a2.378,2.378,0,0,0,1.255.379,1.675,1.675,0,0,0,1.765-1.688V44.549A1.676,1.676,0,0,0,66.551,42.861ZM44.2,21.031,46.553,36.38h-8.93l2.352-15.349ZM55.987,36.38H49.121L46.768,21.032h5.073ZM32.334,21.031h5.073L35.055,36.38H28.189ZM65.77,59.08l-5.4-3.378a1.242,1.242,0,0,1-.474-.8v-5.09a1.245,1.245,0,0,1,.473-.8l5.4-3.378Z" transform="translate(-25.316 -18.857)" fill="#373737"/>
</svg>
