<svg xmlns="http://www.w3.org/2000/svg" width="47" height="43" viewBox="0 0 47 43">
  <path id="power_socket" data-name="power socket" d="M12534.064-7732.35a3.062,3.062,0,0,1-3.065-3.052v-36.9a3.062,3.062,0,0,1,3.065-3.052h40.87a3.064,3.064,0,0,1,3.064,3.052v36.9a3.068,3.068,0,0,1-3.064,3.052Zm0-40.957a1.008,1.008,0,0,0-1.018,1.009v36.9a1.013,1.013,0,0,0,1.018,1.016h40.87a1.019,1.019,0,0,0,1.018-1.016v-36.9a1.015,1.015,0,0,0-1.018-1.016h-40.87Zm3.07,19.37a17.365,17.365,0,0,1,17.36-17.334,17.37,17.37,0,0,1,17.369,17.334,17.374,17.374,0,0,1-17.369,17.334A17.369,17.369,0,0,1,12537.135-7753.937Zm17.36,15.291q.517,0,1.023-.034v-2h-2.041v2C12553.816-7738.657,12554.155-7738.646,12554.5-7738.646Zm2.048-4.073a1.019,1.019,0,0,1,1.018,1.016v2.751a15.326,15.326,0,0,0,12.265-14.984,15.333,15.333,0,0,0-12.265-14.99v2.751a1.02,1.02,0,0,1-1.018,1.021h-4.089a1.022,1.022,0,0,1-1.023-1.021v-2.751a15.333,15.333,0,0,0-12.257,14.99,15.323,15.323,0,0,0,12.257,14.983v-2.75a1.02,1.02,0,0,1,1.023-1.016Zm-3.065-24.473h2.041v-2.008c-.338-.023-.679-.034-1.023-.034s-.679.011-1.018.033Zm6.128,13.255a3.062,3.062,0,0,1,3.064-3.058,3.066,3.066,0,0,1,3.066,3.058,3.07,3.07,0,0,1-3.066,3.058A3.066,3.066,0,0,1,12559.605-7753.937Zm2.041,0a1.026,1.026,0,0,0,1.023,1.021,1.026,1.026,0,0,0,1.025-1.021,1.022,1.022,0,0,0-1.025-1.021A1.022,1.022,0,0,0,12561.646-7753.937Zm-18.385,0a3.06,3.06,0,0,1,3.065-3.058,3.063,3.063,0,0,1,3.063,3.058,3.066,3.066,0,0,1-3.062,3.058A3.063,3.063,0,0,1,12543.262-7753.937Zm2.042,0a1.024,1.024,0,0,0,1.023,1.021,1.018,1.018,0,0,0,1.016-1.021,1.014,1.014,0,0,0-1.016-1.021A1.02,1.02,0,0,0,12545.3-7753.937Z" transform="translate(-12530.999 7775.35)" fill="#373737"/>
</svg>
