<svg xmlns="http://www.w3.org/2000/svg" width="48" height="43" viewBox="0 0 48 43">
  <path id="decor_wall_lamp" data-name="decor wall lamp" d="M63.5,42.021a1.835,1.835,0,0,0-1.076.38l-5.515,4.041a3.42,3.42,0,0,0-1.3,2.564v1.019H48.223a1.092,1.092,0,0,0-1.091,1.092v2.425a7.271,7.271,0,0,1-7.257,7.266h-.812A7.27,7.27,0,0,1,31.8,53.543v-2.39h3a3.231,3.231,0,0,0,2.95-2.13l1.8-5.4a12.108,12.108,0,0,0,4.866-9.905,13.7,13.7,0,1,0-27.405,0,12.108,12.108,0,0,0,4.866,9.9l1.8,5.4a3.231,3.231,0,0,0,2.95,2.13h3v2.39a9.456,9.456,0,0,0,9.439,9.451h.813a9.457,9.457,0,0,0,9.439-9.451V52.211h6.293v1.909a3.419,3.419,0,0,0,1.3,2.564l5.515,4.041a1.83,1.83,0,0,0,1.076.38,1.556,1.556,0,0,0,1.513-1.7V43.717A1.556,1.556,0,0,0,63.5,42.021Zm-44.3-8.307a11.52,11.52,0,1,1,23.041,0c0,6.071-4.844,10.477-11.52,10.477S19.194,39.785,19.194,33.714Zm6.552,14.619-1.039-3.124a16.047,16.047,0,0,0,12.014,0l-1.039,3.124a1.086,1.086,0,0,1-.88.634H26.626A1.084,1.084,0,0,1,25.746,48.333Zm37.082,9.982L58.2,54.921a1.3,1.3,0,0,1-.407-.8V49.006a1.3,1.3,0,0,1,.407-.8l4.633-3.393Z" transform="translate(-17.011 -19.994)" fill="#373737"/>
</svg>
