<svg xmlns="http://www.w3.org/2000/svg" width="54" height="53" viewBox="0 0 54 53">
  <path id="lustri" d="M68.618,47.3l-2.467-9.093a1.078,1.078,0,0,0-1.037-.8H57.043a1.078,1.078,0,0,0-1.037.8L53.5,47.471a1.1,1.1,0,0,0,.182.949,1.071,1.071,0,0,0,.855.429h5.81V51.1a8.115,8.115,0,0,1-8.055,8.154H50.84A8.114,8.114,0,0,1,42.785,51.1V48.848h5.47a.03.03,0,0,0,.014,0,1.082,1.082,0,0,0,1.076-1.089,1.1,1.1,0,0,0-.1-.454l-2.467-9.093a1.077,1.077,0,0,0-1.037-.8H42.785V32.588a3.574,3.574,0,0,0,0-6.8V21.974h3.257A2.123,2.123,0,0,0,48,20.511l1.013-3.331a1.635,1.635,0,0,0-.224-1.458,1.6,1.6,0,0,0-1.312-.647H35.94a1.6,1.6,0,0,0-1.31.645,1.644,1.644,0,0,0-.226,1.459l1.013,3.333a2.123,2.123,0,0,0,1.958,1.462h3.258v3.819a3.574,3.574,0,0,0,0,6.8v4.823H37.673a1.078,1.078,0,0,0-1.037.8l-2.511,9.259a1.1,1.1,0,0,0,.182.949,1.071,1.071,0,0,0,.855.429h5.47V51.1a8.114,8.114,0,0,1-8.055,8.154H31.131A8.114,8.114,0,0,1,23.076,51.1V48.849h5.809a.03.03,0,0,0,.015,0,1.082,1.082,0,0,0,1.076-1.089,1.1,1.1,0,0,0-.1-.454l-2.466-9.093a1.079,1.079,0,0,0-1.037-.8H18.3a1.078,1.078,0,0,0-1.037.8l-2.511,9.259a1.1,1.1,0,0,0,.182.949,1.071,1.071,0,0,0,.855.429h5.131V51.1A10.283,10.283,0,0,0,31.131,61.435h1.446a10.059,10.059,0,0,0,5.837-1.868l2.064,7.428a1.287,1.287,0,0,0,1.231,1.08h0a1.283,1.283,0,0,0,1.228-1.082L45,59.568a10.057,10.057,0,0,0,5.837,1.868h1.446A10.283,10.283,0,0,0,62.495,51.1V48.85h5.131a.031.031,0,0,0,.015,0,1.082,1.082,0,0,0,1.076-1.089A1.11,1.11,0,0,0,68.618,47.3Zm-31.94-30.05H46.737L45.964,19.8H37.451Zm5.03,10.529a1.407,1.407,0,1,1-1.388,1.407A1.4,1.4,0,0,1,41.708,27.783Zm.541,11.805,1.015,7.08H40.151l1.016-7.08Zm4.595,7.08h-1.4l-1.015-7.08h.5Zm-8.35-7.08h.5l-1.016,7.08h-1.4Zm-15.614,0,1.016,7.08H20.781l1.016-7.08Zm4.594,7.08h-1.4l-1.016-7.08h.5Zm-8.35-7.08h.5l-1.015,7.08H17.2ZM41.708,63.373,40.241,58.1a1.2,1.2,0,0,0-.053-.139,10.335,10.335,0,0,0,1.52-2.271,10.386,10.386,0,0,0,1.521,2.271.89.89,0,0,0-.054.139Zm17.814-16.7,1.016-7.08h1.082l1.015,7.08Zm-1.658-7.08h.5l-1.016,7.08h-1.4Zm6.946,7.08-1.016-7.08h.5l1.92,7.08Z" transform="translate(-14.716 -15.075)" fill="#373737"/>
</svg>
