<svg xmlns="http://www.w3.org/2000/svg" width="38" height="43" viewBox="0 0 38 43">
  <path id="lamp_for_kids" data-name="lamp for kids" d="M14184-6740v-38.7a4.318,4.318,0,0,1,4.42-4.3h1.767a4.315,4.315,0,0,1,4.416,4.3v3.439h16.794v-3.439a4.317,4.317,0,0,1,4.42-4.3h1.766a4.317,4.317,0,0,1,4.418,4.3v38.7Zm1.768-1.719h34.467v-31.82h-34.467Zm27.395-36.981v3.439h7.072v-3.439a2.571,2.571,0,0,0-2.652-2.581h-1.766A2.57,2.57,0,0,0,14213.159-6778.7Zm-27.395,0v3.439h7.07v-3.439a2.569,2.569,0,0,0-2.651-2.581h-1.767A2.57,2.57,0,0,0,14185.765-6778.7Zm13.257,32.683a4.321,4.321,0,0,1-4.422-4.3v-6.881a4.319,4.319,0,0,1,4.422-4.3h8.838a4.316,4.316,0,0,1,4.416,4.3v6.881a4.317,4.317,0,0,1-4.416,4.3Zm-2.652-11.182v6.881a2.569,2.569,0,0,0,2.652,2.58h8.838a2.57,2.57,0,0,0,2.649-2.58v-6.881a2.57,2.57,0,0,0-2.649-2.58h-8.838A2.569,2.569,0,0,0,14196.369-6757.2Zm5.3-.172a1.745,1.745,0,0,1,1.769-1.719,1.747,1.747,0,0,1,1.77,1.719,1.747,1.747,0,0,1-1.77,1.72A1.745,1.745,0,0,1,14201.671-6757.371Zm13.611-8.429a2.705,2.705,0,0,0-2.829-2.751,2.7,2.7,0,0,0-2.826,2.751h-1.768c0-2.579,1.942-4.127,4.416-4.3l.355-.085a4.389,4.389,0,0,1,4.42,4.385Zm-17.677,0a2.7,2.7,0,0,0-2.825-2.751,2.7,2.7,0,0,0-2.829,2.751h-1.768c0-2.579,1.944-4.127,4.416-4.3l.358-.085a4.387,4.387,0,0,1,4.414,4.385Z" transform="translate(-14183.997 6782.999)" fill="#373737"/>
</svg>
