<svg xmlns="http://www.w3.org/2000/svg" width="43" height="43" viewBox="0 0 43 43">
  <path id="led_light" data-name="led light" d="M14205.895-7103a.9.9,0,0,1-.9-.9V-7145.1a.9.9,0,0,1,.9-.9h41.209a.9.9,0,0,1,.895.9v41.208a.9.9,0,0,1-.895.9Zm.9-1.792h39.416v-39.417h-39.416Zm5.375-19.708a14.349,14.349,0,0,1,14.332-14.334,14.35,14.35,0,0,1,14.334,14.334,14.349,14.349,0,0,1-14.334,14.333A14.349,14.349,0,0,1,14212.166-7124.5Zm1.791,0a12.557,12.557,0,0,0,12.541,12.541,12.556,12.556,0,0,0,12.543-12.541,12.555,12.555,0,0,0-12.543-12.542A12.556,12.556,0,0,0,14213.957-7124.5Zm2.688,0a9.865,9.865,0,0,1,9.854-9.854,9.865,9.865,0,0,1,9.855,9.854,9.866,9.866,0,0,1-9.855,9.854A9.865,9.865,0,0,1,14216.645-7124.5Zm1.791,0a8.074,8.074,0,0,0,8.063,8.063,8.071,8.071,0,0,0,8.063-8.062,8.071,8.071,0,0,0-8.062-8.063A8.074,8.074,0,0,0,14218.436-7124.5Zm1.793,0a6.277,6.277,0,0,1,6.27-6.271.9.9,0,0,1,.9.9.9.9,0,0,1-.9.9,4.484,4.484,0,0,0-4.479,4.479.9.9,0,0,1-.9.9A.9.9,0,0,1,14220.229-7124.5Z" transform="translate(-14204.998 7145.998)" fill="#373737"/>
</svg>
