<svg xmlns="http://www.w3.org/2000/svg" width="66" height="38" viewBox="0 0 66 38">
  <path id="trek" d="M75.5,51.792,67.413,45.36a1.124,1.124,0,0,0-.887-.226l-3.672-6.429a1.142,1.142,0,0,0-.914-.577V34.864h8.293A1.153,1.153,0,0,0,71.378,33.7v-6.18a1.153,1.153,0,0,0-1.146-1.159h-54.6a1.153,1.153,0,0,0-1.146,1.159V33.7a1.153,1.153,0,0,0,1.146,1.159h8.294v3.264a1.118,1.118,0,0,0-.219.037,1.146,1.146,0,0,0-.7.54l-3.671,6.429a1.127,1.127,0,0,0-.89.226L10.37,51.792a1.166,1.166,0,0,0,.136,1.914l2.263,1.321a5.279,5.279,0,0,0-.059,2.924,5.223,5.223,0,0,0,2.425,3.2,5.16,5.16,0,0,0,6.425-.99l2.263,1.321a1.132,1.132,0,0,0,1.074.039,1.155,1.155,0,0,0,.633-.877L27,50.345a1.156,1.156,0,0,0-.252-.892l3.67-6.428A1.166,1.166,0,0,0,30,41.442l-.147-.086V34.862H39.974v4.925h-.168a1.153,1.153,0,0,0-1.146,1.159V48.37a1.149,1.149,0,0,0-.659.645l-3.82,9.657a1.171,1.171,0,0,0,.116,1.08,1.141,1.141,0,0,0,.949.509h2.614a5.187,5.187,0,0,0,10.146,0h2.615a1.141,1.141,0,0,0,.948-.509,1.171,1.171,0,0,0,.116-1.08l-3.82-9.657a1.142,1.142,0,0,0-.659-.645V40.946a1.152,1.152,0,0,0-1.146-1.159H45.9V34.862H56.019v6.493l-.148.086a1.166,1.166,0,0,0-.419,1.583l3.671,6.43a1.165,1.165,0,0,0-.251.89l1.467,10.3a1.155,1.155,0,0,0,.633.877,1.131,1.131,0,0,0,1.073-.039l2.27-1.325a5.189,5.189,0,0,0,3.823,1.7,5.13,5.13,0,0,0,2.595-.7A5.3,5.3,0,0,0,73.1,55.029l2.263-1.321a1.168,1.168,0,0,0,.137-1.916ZM16.782,28.683h52.3v3.863h-52.3Zm1.711,30.751a2.869,2.869,0,0,1-2.211-.294,2.922,2.922,0,0,1-1.356-1.788,2.975,2.975,0,0,1-.077-1.112l4.635,2.706A2.864,2.864,0,0,1,18.492,59.434Zm5.012-.817-1.673-.977,0,0,0,0-7.019-4.1-.006,0-.007,0-1.673-.977,6.144-4.889,5.356,3.127Zm1.3-10.393-3.432-2,3.056-5.352,3.432,2Zm2.757-8.2-1.338-.78V34.865h1.338Zm17.358,2.086v6.181H40.953V42.107ZM42.935,62.049a2.915,2.915,0,0,1-2.676-1.787h5.352A2.916,2.916,0,0,1,42.935,62.049Zm6-4.1H36.939l2.9-7.34h6.184ZM43.6,39.789H42.266V34.865H43.6Zm14.708-4.926h1.338v4.375l-1.338.78Zm3.132,6L64.5,46.22l-3.434,2.006-3.056-5.353Zm-.191,9.925,5.354-3.127,6.144,4.889-8.7,5.082a0,0,0,0,0,0,0s0,0,0,0l-1.674.978Zm8.336,8.347a2.883,2.883,0,0,1-3.2-.194l4.635-2.707A2.96,2.96,0,0,1,69.588,59.14Z" transform="translate(-9.933 -26.365)" fill="#373737"/>
</svg>
