<svg xmlns="http://www.w3.org/2000/svg" width="47" height="43" viewBox="0 0 47 43">
  <path id="sale" d="M14219.951-6288.54l-25.569-20.312a5.328,5.328,0,0,1-2.033-3.989l-.348-10.22a5.426,5.426,0,0,1,4.605-5.482l10.363-1.711a5.641,5.641,0,0,1,4.424,1.14l25.568,20.31a5.312,5.312,0,0,1,2.007,3.625,5.238,5.238,0,0,1-1.214,3.942l-10.024,11.936a5.584,5.584,0,0,1-4.284,1.971A5.605,5.605,0,0,1,14219.951-6288.54Zm-12.725-40.259-10.371,1.711a3.936,3.936,0,0,0-3.341,3.976l.351,10.223a3.866,3.866,0,0,0,1.475,2.9l25.57,20.311a4.093,4.093,0,0,0,5.644-.552l10.022-11.938a3.782,3.782,0,0,0,.885-2.858,3.846,3.846,0,0,0-1.457-2.632l-25.567-20.31a4.09,4.09,0,0,0-2.54-.882A4.088,4.088,0,0,0,14207.227-6328.8Zm-9.424,10.129a3.311,3.311,0,0,1-.49-4.74,3.473,3.473,0,0,1,2.336-1.223,3.517,3.517,0,0,1,2.538.744,3.31,3.31,0,0,1,.492,4.74,3.5,3.5,0,0,1-2.686,1.237A3.515,3.515,0,0,1,14197.8-6318.67Zm2-4.495a1.955,1.955,0,0,0-1.315.686,1.863,1.863,0,0,0,.278,2.667,1.993,1.993,0,0,0,2.744-.27,1.863,1.863,0,0,0-.279-2.665,1.968,1.968,0,0,0-1.229-.428C14199.934-6323.174,14199.867-6323.169,14199.8-6323.165Z" transform="translate(-14191.998 6330.33)" fill="#373737"/>
</svg>
