<svg xmlns="http://www.w3.org/2000/svg" width="8" height="14" viewBox="0 0 8 14">
  <path id="compare" d="M-10250.847-65.956v-8.907a.939.939,0,0,1,.923-.955.94.94,0,0,1,.923.955v8.907a.94.94,0,0,1-.923.955A.939.939,0,0,1-10250.847-65.956Zm-3.077,0v-12.09A.94.94,0,0,1-10253-79a.94.94,0,0,1,.925.955v12.09A.94.94,0,0,1-10253-65,.94.94,0,0,1-10253.924-65.956Zm-3.077,0V-70.41a.939.939,0,0,1,.923-.955.939.939,0,0,1,.924.955v4.454a.939.939,0,0,1-.924.955A.939.939,0,0,1-10257-65.956Z" transform="translate(10257.001 79.001)" fill="#004675"/>
</svg>
