<svg xmlns="http://www.w3.org/2000/svg" width="12" height="14" viewBox="0 0 12 14">
  <path id="Path_632" data-name="Path 632" d="M-7067.286-2230a1.735,1.735,0,0,1-1.715-1.75v-7.876a1.734,1.734,0,0,1,1.715-1.75h.055a1.76,1.76,0,0,0-.055.438,1.735,1.735,0,0,0,1.716,1.75,1.734,1.734,0,0,0,1.714-1.75,1.824,1.824,0,0,0-.054-.438h1.822a1.738,1.738,0,0,0-.055.438,1.735,1.735,0,0,0,1.715,1.75,1.733,1.733,0,0,0,1.714-1.75,1.815,1.815,0,0,0-.053-.438h.052a1.734,1.734,0,0,1,1.715,1.75v7.876a1.735,1.735,0,0,1-1.715,1.75Zm0-1.75h8.57V-2237h-8.57Zm6-9.625v-1.751a.865.865,0,0,1,.856-.874.865.865,0,0,1,.858.874v1.751a.866.866,0,0,1-.858.874A.866.866,0,0,1-7061.286-2241.374Zm-5.142,0v-1.751a.865.865,0,0,1,.856-.874.865.865,0,0,1,.857.874v1.751a.865.865,0,0,1-.857.874A.865.865,0,0,1-7066.428-2241.374Z" transform="translate(7069 2244)" fill="#7093a8"/>
</svg>
