<svg xmlns="http://www.w3.org/2000/svg" width="14.001" height="15.999" viewBox="0 0 14.001 15.999">
  <path id="Path_632" data-name="Path 632" d="M-7067-2228a2,2,0,0,1-2-2v-9a2,2,0,0,1,2-2h.064a1.957,1.957,0,0,0-.064.5,2,2,0,0,0,2,2,2,2,0,0,0,2-2,2.044,2.044,0,0,0-.062-.5h2.125a1.957,1.957,0,0,0-.064.5,2,2,0,0,0,2,2,2,2,0,0,0,2-2,2.033,2.033,0,0,0-.062-.5h.061a2,2,0,0,1,2,2v9a2,2,0,0,1-2,2Zm0-2h10v-6h-10Zm7-11v-2a1,1,0,0,1,1-1,1,1,0,0,1,1,1v2a1,1,0,0,1-1,1A1,1,0,0,1-7060-2241Zm-6,0v-2a1,1,0,0,1,1-1,1,1,0,0,1,1,1v2a1,1,0,0,1-1,1A1,1,0,0,1-7066-2241Z" transform="translate(7069 2244)" fill="#004675"/>
</svg>
