<svg xmlns="http://www.w3.org/2000/svg" width="17" height="18" viewBox="0 0 17 18">
  <path id="Контур_95" data-name="Контур 95" d="M13620.185,7001.306a2.933,2.933,0,0,1-.926-1.462h-10.511a.747.747,0,1,1,0-1.493h10.512a2.917,2.917,0,0,1,5.732.75,2.917,2.917,0,0,1-4.808,2.2Zm.477-2.21a1.418,1.418,0,1,0,1.419-1.41A1.416,1.416,0,0,0,13620.661,6999.1Zm-12.659-6.123a2.916,2.916,0,0,1,5.731-.743h10.517a.743.743,0,1,1,0,1.486h-10.511a2.917,2.917,0,0,1-5.733-.743Zm1.5,0a1.418,1.418,0,1,0,1.419-1.41A1.416,1.416,0,0,0,13609.5,6992.976Zm10.686-3.864a2.935,2.935,0,0,1-.926-1.462h-10.511a.747.747,0,1,1,0-1.494h10.512a2.907,2.907,0,1,1,.925,2.956Zm.477-2.212a1.418,1.418,0,1,0,1.419-1.411A1.416,1.416,0,0,0,13620.661,6986.9Z" transform="translate(-13607.997 -6984.001)" fill="#373737"/>
</svg>
