<svg xmlns="http://www.w3.org/2000/svg" xmlns:xlink="http://www.w3.org/1999/xlink" width="106" height="98" viewBox="0 0 106 98">
  <defs>
    <filter id="Compound_Path" x="0" y="0" width="106" height="98" filterUnits="userSpaceOnUse">
      <feOffset dy="3" input="SourceAlpha"/>
      <feGaussianBlur stdDeviation="3" result="blur"/>
      <feFlood flood-opacity="0.161"/>
      <feComposite operator="in" in2="blur"/>
      <feComposite in="SourceGraphic"/>
    </filter>
  </defs>
  <g transform="matrix(1, 0, 0, 1, 0, 0)" filter="url(#Compound_Path)">
    <path id="Compound_Path-2" data-name="Compound Path" d="M101.033,39.593h0c-2.786-13.6-12.6-22.471-25.313-22.471a34.087,34.087,0,0,0-18.046,5.83A33.967,33.967,0,0,0,39.507,17C26.79,17,16.858,25.867,14.315,39.593,10.681,58.42,21.824,83.32,54.888,96.438a7.489,7.489,0,0,0,5.692,0C93.524,83.077,104.545,58.177,101.033,39.593ZM57.674,87.207c-27.251-11.175-36.7-30.974-33.912-45.792,1.7-9.11,7.751-14.7,15.745-14.7,4.723,0,10.053,2.065,15.26,5.952a4.833,4.833,0,0,0,5.814,0c5.208-3.887,10.537-5.952,15.139-5.952,7.872,0,13.928,5.587,15.745,14.576C94.251,56.112,84.925,75.789,57.674,87.207Z" transform="translate(-4.66 -11)" fill="#fff"/>
  </g>
</svg>
