<svg xmlns="http://www.w3.org/2000/svg" width="100" height="99" viewBox="0 0 100 99">
  <g id="cash_pay_icon" data-name="cash pay icon" transform="translate(-353 -405)">
    <path id="Контур_616" data-name="Контур 616" d="M-12454.51-4600.257h0l-2.462-1.151-5.568-2.833-8.87-4.455-7.053-3.577-8.947-4.376-7.756-4.063-5.371-2.773.605-1.095.957-1.521.546-.938-.976-.489-1.35-.625c-.037-.062-.342-.59-.213-.919a21.947,21.947,0,0,1,1.349-2.639c.477-.79,1.144-2.153,1.68-3.249l.066-.135c.144-.294.28-.572.4-.813a17.111,17.111,0,0,1,1.241-1.967c.37-.534.753-1.084,1.046-1.609a31.862,31.862,0,0,1,1.793-2.754l.006-.008.062-.087.289-.414c.259-.373.515-.805.785-1.263l.021-.035a20.429,20.429,0,0,1,2.008-2.959,29.439,29.439,0,0,0,1.869-2.466l.006-.008c.276-.4.559-.8.937-1.316.212-.289.426-.585.632-.871l.07-.1a30.622,30.622,0,0,1,2.68-3.389,10.767,10.767,0,0,0,1.6-2.247l.013-.021a13,13,0,0,1,.75-1.189c.846-1.147,2.86-3.356,3.458-4.006.654-.71,1.413-1.688,2.083-2.552l.01-.012c.279-.361.544-.7.762-.972a17.176,17.176,0,0,1,1.881-1.81c.4-.352.783-.684.99-.907.236-.254.5-.568.8-.933l.029-.035c.336-.4.753-.9,1.2-1.4a19.643,19.643,0,0,1,1.944-1.8c.152-.127.295-.247.418-.353.257-.221.566-.536.925-.9l.023-.023c.414-.422.928-.948,1.533-1.5.423-.386.725-.7,1.017-1l.011-.011a11.862,11.862,0,0,1,1.532-1.393,12.668,12.668,0,0,0,1.349-1.183l0,0h0a12.019,12.019,0,0,1,.951-.864c.869-.7,2.93-2.384,3.771-3.125a20.589,20.589,0,0,1,1.838-1.363l.01-.007c.348-.238.648-.444.851-.6.562-.442,3.682-2.469,4.923-3.147,1.125-.617,2.507-1.351,2.772-1.491l.01-.005.941.1,1.283.373,1.889.581,2.517.875,3.953,1.311,4.515,1.484,5.813,1.75,4.922,1.609,3.687,1.186,4.439,1.515,3.922,1.221,1.123.687-.734.766-1.028.671-2.391,1.656.7.408,2.219,1.029,2.187,1,.251.53-.549.345-.936.452-.953.781-1.327.875-.069.057c-1.375,1.138-1.776,1.481-1.87,1.569l-1.53,1.417c-.424.393-.759.7-.767.71l-2.767,2.779-2.683,2.83-2.642,3.015-2.437,3.392-.027.04c-.51.765-2.175,3.263-2.175,3.3s-.436,1.1-.439,1.107h-.766l-1.061-.671c-.1-.081-1.046-1.134-1.552-1.7l-.027-.03-.047-.052c-.144-.161-.239-.268-.25-.279s-.417-.88-.846-1.849c-.192-.434-.823-1.869-.893-2.155s-.232-.747-.38-1.165l-.008-.022c-.092-.262-.178-.51-.221-.654l-.023-.081-.071-.242c-.171-.582-.488-1.665-.515-1.742-.019-.056-.556-1.354-1.079-2.618l-.133-.322c-.21-.507-.361-.873-.366-.887a17.112,17.112,0,0,0-1.343-2.029c-.312-.3-1.212-1.368-1.22-1.378s-2.33-1.171-2.579-1.217c-.215-.041-1.681-.1-2.094-.1-.046,0-.079,0-.093,0-.134.017-1.578.33-1.625.361-.014.009-.188.09-.446.21-.566.265-1.515.707-1.537.741-.011.017-.234.244-.518.531l-.009.009c-.448.455-1.2,1.216-1.208,1.258,0,.018-.055.163-.12.353-.167.485-.478,1.389-.489,1.492,0,.049-.025.267-.05.533-.008-.2-.016-.331-.016-.332h0l-.056-.024c-.1-.042-.279-.122-.337-.152-.024-.012-.079-.03-.153-.055a6.685,6.685,0,0,1-.725-.278c-.421-.19-1.093-.447-1.581-.625a8.78,8.78,0,0,0-1.585-.448,16.673,16.673,0,0,1-1.738-.393,9.39,9.39,0,0,0-1.876-.292h-2.246a14.88,14.88,0,0,0-2.011.194,19.832,19.832,0,0,0-1.978.578l-.14.045-.189.062a10.525,10.525,0,0,0-1.253.535c-.224.108-.416.2-.545.246a8.681,8.681,0,0,0-1.641,1.312,7.082,7.082,0,0,0-1.151,1.738,8.732,8.732,0,0,0-.392,2.247,7.578,7.578,0,0,0,.194,1.914c.054.145.138.408.235.712.14.438.3.934.392,1.145a12.331,12.331,0,0,0,1.055,1.6c.374.5,1,1.257,1.211,1.506s.793.8,1.095,1.073a18.7,18.7,0,0,0,1.54,1.233,14.9,14.9,0,0,1,1.428,1.114,5.3,5.3,0,0,0,.823.5l.012.007a4.449,4.449,0,0,1,.515.3,7.272,7.272,0,0,0,1.171.463c.306.107.618.216.821.3.543.22,2.114.8,2.4.878.115.031.541.112,1.085.215l.017,0c.75.143,1.6.3,1.69.35.154.075,2.4.213,2.7.213s2.619-.139,3.36-.213a9.2,9.2,0,0,0,1.436-.285.621.621,0,0,0,.321-.694,1.27,1.27,0,0,0-.237-.564,1.756,1.756,0,0,1-.29-.666c-.071-.333-.111-.47-.172-.676l-.029-.1.173.36c.6,1.25.9,1.876.916,1.914.032.082.109,1.826.109,1.936s-.313,1.659-.5,2.581c-.009.041-.014.065-.014.067l-.011.042c-.208.779-.887,3.326-.887,3.377,0,.034-.267,1.391-.771,3.922-.018.086-.027.137-.028.141l-.1,4.279.1,3.809.564,2.814.878,4.085v.5l-.878,1.136-1.9,3.341-2.616,5.2-2.014,3.85-1.6,3.983Zm-15.918-38.415a6.176,6.176,0,0,0-1.4.221,3.621,3.621,0,0,0-1.066.712,3.626,3.626,0,0,0-.279.991c0,.034-.01.071-.016.109l-.006.037a1.986,1.986,0,0,0,.021,1.122c.021.034.049.077.08.127l.065.1,0,.007a11.686,11.686,0,0,0,.817,1.211,7.983,7.983,0,0,0,.922.619l.008,0c.267.167.52.324.645.417l.094.071a5.646,5.646,0,0,0,1.124.717,11.893,11.893,0,0,0,1.9.508c.2.016.775.04,1.228.04a3.1,3.1,0,0,0,.655-.04,14.117,14.117,0,0,0,1.521-.866,1.908,1.908,0,0,0,.533-.863c.018-.2.011-.615,0-.917,0-.147,0-.254,0-.329a4.608,4.608,0,0,0-.684-1.4c-.006-.006-.654-.632-.941-.863-.076-.061-.166-.136-.254-.208l-.064-.053-.009-.008c-.185-.153-.376-.312-.485-.39a6.016,6.016,0,0,0-.687-.358,19.862,19.862,0,0,0-2.105-.712,1.776,1.776,0,0,0-.228-.013c-.122,0-.249.008-.392.019h-.018l-.036,0h-.013c-.127.007-.259.015-.384.015a1.88,1.88,0,0,1-.329-.024A1.336,1.336,0,0,0-12470.428-4638.672Zm29.916-38.05c-.161,0-.282,0-.351.007a3.453,3.453,0,0,0-1.217.283c-.142.08-.281.146-.4.2a1.819,1.819,0,0,0-.456.264c-.041.041-.09.084-.138.126a1.778,1.778,0,0,0-.455.53,2.223,2.223,0,0,0-.156,1.3,4.234,4.234,0,0,0,.671,1.217,3.951,3.951,0,0,0,1.017.734c.356.164,1.3.565,1.547.644a6.806,6.806,0,0,0,1.767.263h.079c.2,0,.369.007.528.007a2.725,2.725,0,0,0,1.171-.181l.04-.018a4.107,4.107,0,0,0,1.243-.717l.026-.028a1.386,1.386,0,0,0,.488-.8c.01-.075.025-.147.04-.218l0-.015a1.047,1.047,0,0,0-.043-.765c-.035-.069-.066-.135-.1-.2l-.027-.057a2.894,2.894,0,0,0-.392-.668c-.061-.072-.11-.141-.157-.208l-.007-.009a1.4,1.4,0,0,0-.539-.5c-.325-.17-.543-.263-.795-.371l-.011,0-.147-.063c-.074-.031-.134-.058-.186-.081l-.039-.018a2.352,2.352,0,0,0-.4-.149c-.234-.062-.492-.128-.492-.128a7.561,7.561,0,0,0-1.258-.374l-.275,0h-.048C-12440.149-4676.72-12440.344-4676.722-12440.512-4676.722Zm-5.43,29.114-.217-.45-.576-1.859c.044.082.081.147.114.2l.014.024a3.439,3.439,0,0,1,.4,1.11c.132.515.21.789.263.97Zm-.8-2.319c-.069-.129-.145-.287-.225-.469l-.031-.07-.009-.021c-.442-1-.942-2.131-1.134-2.7a6.746,6.746,0,0,1-.2-1.208,9.458,9.458,0,0,0-.21-1.352c-.066-.245-.138-.565-.222-1.006l1.64,5.571.391,1.255Zm-2.034-6.847-.089-.3s-.014-.141-.035-.368l.029.158c.031.168.063.34.1.51Zm-.128-.691c-.086-.458-.15-.8-.212-1.038a7.452,7.452,0,0,1-.059-1.842c.053.543.132,1.387.2,2.081l.075.8Zm-.271-2.906c-.029-.3-.048-.521-.048-.531,0-.032.074-.854.122-1.372a9.879,9.879,0,0,1-.016,1.174c-.013.126-.037.389-.057.729Z" transform="translate(12854.986 5095.558)" fill="#f4f7f8"/>
    <path id="Контур_606" data-name="Контур 606" d="M1655.858,1896.345a16.466,16.466,0,0,0,5.233,7.7.609.609,0,0,1-.731.974,16.975,16.975,0,0,1-5.308-7.373,92.383,92.383,0,0,0-4.763,8.581,13.608,13.608,0,0,1,3.568,3.693c.3.441.576.9.833,1.386a20.738,20.738,0,0,1,.386-2.749.61.61,0,0,1,1.194.243,16.223,16.223,0,0,0-.25,5.729,12.961,12.961,0,0,0,4.075,7.139l-.027.136a1.682,1.682,0,0,1-.017.251,2,2,0,0,0-.124.487l-.109.209a1.342,1.342,0,0,1-.324-.012c-.022-.006-.048-.011-.077-.015a12.992,12.992,0,0,1-4.475-7.3,14.287,14.287,0,0,0-2.1-4.83,12.512,12.512,0,0,0-3.1-3.266c-1.232,2.518-2.409,5.063-3.581,7.609l-46.96-23.895c.718-1.167,1.406-2.361,2.142-3.515l-2.726-1.467c9.059-19.654,34.07-50.856,53.4-61.435,1.765-.966,2.152-1.128,4.111-.5l35.267,11.391c.554.186,1.079.388,1.475.562,1.956.818.054,2.07-1.143,2.81q-.894.553-1.8,1.224c1.029.427,2.587,1.1,3.644,1.631.525.266,2.369,1.07,1.05,1.794q-.453.225-.958.531c-4.626,2.8-9.793,8.2-13.4,12.413.43.3.856.6,1.282.9,6.379,4.452,13.056,9.111,14.093,23.587a43.659,43.659,0,0,0,2.973,13.1c-.119.055-.21.126-.26.141a1.532,1.532,0,0,0-.547.365l-.073.026a1.142,1.142,0,0,0-.315-.237,44.871,44.871,0,0,1-3-13.306c-1-13.9-7.427-18.386-13.573-22.675-.463-.323-.925-.646-1.373-.964a67.347,67.347,0,0,0-6.1,8.484c.372.3.777.606,1.218.938a24.377,24.377,0,0,1,8.256,10.914.61.61,0,0,1-1.137.444,23.177,23.177,0,0,0-7.85-10.384c-5.249-3.943-5.659-5.271-6.7-8.648a58.373,58.373,0,0,0-3.128-8.321c-3.646-6.309-11.832-4.11-11.979,2.168a28.061,28.061,0,0,0,2.806,12.548,20.921,20.921,0,0,1,1.309,3.61,9.891,9.891,0,0,0,.032-1.871.366.366,0,0,1,.728-.066,12.519,12.519,0,0,1-.178,3.1,27.908,27.908,0,0,1-.97,3.895,36.058,36.058,0,0,0-1.716,12.683,32.847,32.847,0,0,0,1.781,9.426Zm2.846-58.189c-1.658.579-1.969,1.954-.722,3.19a6.052,6.052,0,0,0,5.693,1.289c1.658-.579,1.969-1.954.722-3.19A6.052,6.052,0,0,0,1658.7,1838.156Zm6.209.771c1.627,1.614,1.178,3.64-1,4.4a6.748,6.748,0,0,1-6.45-1.461c-1.627-1.614-1.178-3.64,1-4.4A6.748,6.748,0,0,1,1664.913,1838.926Zm-28.171,39.242c1.523,2.13.625,4.3-1.957,4.737a7.79,7.79,0,0,1-7.021-2.9c-1.523-2.13-.625-4.3,1.957-4.737A7.79,7.79,0,0,1,1636.742,1878.168Zm-.6.424a7.06,7.06,0,0,0-6.3-2.6c-5.113.863-.15,7.03,4.824,6.19C1636.712,1881.837,1637.353,1880.279,1636.146,1878.592Zm18.906-8.778c-7.191,2.058-16.985-1.656-21.377-7.468-4.338-5.74-2.107-11.622,4.975-13.011a21.392,21.392,0,0,1,12.482,1.805c1.949-6.712,10.385-7.1,13.967-.9a58.354,58.354,0,0,1,3.238,8.574c.065.211.127.413.188.607a99.145,99.145,0,0,1,5.983-9.028,67.981,67.981,0,0,1,6.491-7.618c-2.645-1.237-5.2-4.105-2.785-6.814l-17.966-5.873c-2.166,2.476-7.263,2.574-9.968.892-14.8,8.537-32.717,31.881-41,46.674a7,7,0,0,1,3.34,9.558l23.478,12.354c.333.175.229.2.4-.076a7.681,7.681,0,0,1,9.775-2.832c.306.145.256.226.423-.059,1.9-3.243,3.98-6.387,6.177-9.434-.266-4.979.541-8.563,1.756-13.3A11.376,11.376,0,0,0,1655.052,1869.814Zm-4.091-17.946a20.72,20.72,0,0,0-12.171-1.812c-6.537,1.281-8.546,6.537-4.531,11.85,4.214,5.576,13.74,9.2,20.644,7.19a23.9,23.9,0,0,0-1.155-3.047,29.1,29.1,0,0,1-2.9-13.049A7.312,7.312,0,0,1,1650.962,1851.868Zm-14.709,48.611-24.232-12.75a.367.367,0,0,1-.224-.541,6.245,6.245,0,0,0-2.869-8.887c-.5-.226-.637-.409-.394-.809,9.444-15.523,25.634-38.184,41.582-47.257a.366.366,0,0,1,.428.049c2.409,1.539,7.416,1.636,9.284-.833.168-.223.4-.137.607-.067l18.426,6.023c.313.1.593.41.27.686-2.792,2.4.079,5.207,2.618,6.215.532.2.181.588-.027.791a66.35,66.35,0,0,0-6.624,7.736,96.252,96.252,0,0,0-6.261,9.526,8.529,8.529,0,0,0,1.369,2.55c4.053-7.781,10.738-17.023,17.58-22.652a30.223,30.223,0,0,1,3.307-2.394c1.252-.787,1.145-.773-.075-1.179L1655.76,1825.3c-1.6-.518-1.7-.393-3.156.4-18.921,10.353-43.215,40.74-52.393,59.837l44.03,23.687c2.891-5.566,5.727-11.423,9.33-16.549a36.428,36.428,0,0,1-.626-4.359c-2.11,2.965-4.107,6.018-5.925,9.171-.224.389-.644.046-.9-.086a6.944,6.944,0,0,0-9.09,2.624C1636.847,1900.339,1636.724,1900.727,1636.252,1900.479Zm22.333-41.014a.244.244,0,0,1-.3-.384,4.292,4.292,0,0,1,2.9-.74.244.244,0,0,1-.046.485A3.823,3.823,0,0,0,1658.585,1859.465Zm-5.1-7.37a.365.365,0,0,1,.731.011c-.011.673.064,1.822.966,1.837,1.2.02,2.93-1.512,6.226-1.361.814.037.572-.7.344-1.2a3.876,3.876,0,0,0-2-2.01.366.366,0,0,1,.215-.7,4.664,4.664,0,0,1,2.455,2.408c.468,1.029.418,2.3-1.043,2.232-3.328-.151-4.713,1.386-6.206,1.362C1653.779,1854.65,1653.466,1853.244,1653.485,1852.094Zm3.743,6.8a.366.366,0,0,1-.588-.436c1.129-1.527,3.863-1.981,5.593-1.451a.365.365,0,0,1-.212.7C1660.594,1857.265,1658.165,1857.621,1657.227,1858.89Zm-3.28,35.393c-3.493,5.2-6.294,11.039-9.2,16.6l-42.329-22.771c-.516.808-1,1.623-1.488,2.445l44.653,22.721c1.191-2.58,2.361-5.075,3.548-7.462a89.951,89.951,0,0,1,5.391-9.6q-.32-.951-.578-1.938Zm18.482-29.151a70.8,70.8,0,0,1,6.784-9.279c3.7-4.344,8.63-9.438,13.382-12.447.825-.522.877-.35.026-.76-1.283-.619-3.043-1.351-3.8-1.657-6.889,5.562-13.761,15.1-17.745,22.9C1671.453,1864.272,1671.9,1864.682,1672.43,1865.132Z" transform="translate(-1245.618 -1418.76)" fill="#7093a8"/>
  </g>
</svg>
