<svg xmlns="http://www.w3.org/2000/svg" width="17" height="36" viewBox="0 0 17 36">
  <path id="Контур_207" data-name="Контур 207" d="M45.26,36.082V32.6a.782.782,0,0,0-.778-.787H42.824V15.631a.778.778,0,1,0-1.556,0V31.809H39.61a.782.782,0,0,0-.778.787v3.486A8.9,8.9,0,0,0,33.546,44.3v2.11a.783.783,0,0,0,.778.787H37.87a4.215,4.215,0,0,0,8.353,0h3.545a.783.783,0,0,0,.778-.787V44.3A8.9,8.9,0,0,0,45.26,36.082Zm-4.873-2.7H43.7v2.207a8.073,8.073,0,0,0-3.316,0V33.383Zm1.659,15.888A2.476,2.476,0,0,1,39.435,47.2h5.221A2.475,2.475,0,0,1,42.046,49.271Zm6.943-3.648H35.1V44.3a6.953,6.953,0,1,1,13.887,0Z" transform="translate(-33.546 -14.844)" fill="#373737"/>
</svg>
