<svg xmlns="http://www.w3.org/2000/svg" width="11" height="36" viewBox="0 0 11 36">
  <path id="Контур_211" data-name="Контур 211" d="M13301-12404.076v-11.7a.779.779,0,0,1,.574-.743.719.719,0,0,0,.538-.689.719.719,0,0,0-.538-.687.776.776,0,0,1-.574-.743v-2.945a.786.786,0,0,1,.8-.774h2.469v-4.783l-.747-1.062a.747.747,0,0,1-.128-.561l.885-5.33a.791.791,0,0,1,.788-.65h2.865a.792.792,0,0,1,.789.65l.888,5.33a.765.765,0,0,1-.129.561l-.75,1.063v4.785h2.473a.785.785,0,0,1,.8.772v2.946a.778.778,0,0,1-.575.742.722.722,0,0,0-.54.689.72.72,0,0,0,.54.688.778.778,0,0,1,.574.742v11.7a5.425,5.425,0,0,1-5.5,5.332A5.424,5.424,0,0,1,13301-12404.076Zm1.6-15.055a2.268,2.268,0,0,1,1.114,1.926,2.266,2.266,0,0,1-1.114,1.926v11.205a3.848,3.848,0,0,0,3.9,3.781,3.848,3.848,0,0,0,3.9-3.781v-11.205a2.26,2.26,0,0,1-1.113-1.926,2.263,2.263,0,0,1,1.113-1.926v-1.677h-7.8Zm2.422-9.691.709,1.007a.76.76,0,0,1,.139.437v5.023h1.264v-5.025a.76.76,0,0,1,.141-.437l.708-1-.728-4.373h-1.5Zm2.166,24.627v-10.432a.787.787,0,0,1,.8-.774.786.786,0,0,1,.8.774v10.432a.787.787,0,0,1-.8.775A.788.788,0,0,1,13307.186-12404.2Zm-2.969,0v-10.432a.787.787,0,0,1,.8-.774.786.786,0,0,1,.8.774v10.432a.787.787,0,0,1-.8.775A.788.788,0,0,1,13304.217-12404.2Z" transform="translate(-13301 12434.744)" fill="#373737"/>
</svg>
