<svg xmlns="http://www.w3.org/2000/svg" width="110" height="64" viewBox="0 0 110 64">
  <g id="card_pay_icon" data-name="card pay icon" transform="translate(-873 -450)">
    <path id="Контур_617" data-name="Контур 617" d="M-12496.65-4618.467h0l-.027-.005c-.5-.1-1.678-.323-1.742-.349s-.856-.417-1-.515a3.207,3.207,0,0,1-.593-.656,7.252,7.252,0,0,1-.518-.812,4.194,4.194,0,0,1-.209-.6l0-.013c-.032-.108-.061-.2-.082-.257a3.678,3.678,0,0,1-.173-.828c.013-.077,0-.754,0-1.042v-.021l.173-35.27,0-.012c.044-.35.192-1.5.232-1.575a4.54,4.54,0,0,1,.546-.828,9.639,9.639,0,0,1,.829-.812,4.662,4.662,0,0,1,1.154-.706l.013,0,.032-.008c.263-.062.809-.191.972-.206.052,0,.2-.007.429-.007s.555,0,.913.007h64.5l.027,0c.414.07,1.117.19,1.178.212a2.185,2.185,0,0,1,.218.136l.015.009a5.529,5.529,0,0,0,.5.31,4.91,4.91,0,0,1,.828.578,5.857,5.857,0,0,1,.624.859l.049.1,0,0a3.967,3.967,0,0,1,.264.656,9.566,9.566,0,0,1,.122.985v23.32s-.085-.061-.207-.15c-.5-.365-1.655-1.22-1.792-1.343-.161-.144-1.271-1.062-1.421-1.17-.062-.043-.26-.166-.493-.31-.346-.214-.819-.506-1.038-.66-.145-.1-.419-.281-.763-.505-.41-.269-.921-.6-1.035-.7s-.7-.494-1.17-.819c-.372-.256-.756-.52-.847-.589-.2-.15-1.014-.7-1.358-.888s-.64-.336-1.048-.518c-.118-.053-.218-.1-.31-.146a3.938,3.938,0,0,0-.83-.321c-.134-.035-.306-.087-.5-.147l-.063-.019a9.78,9.78,0,0,0-1.666-.411c-.092-.006-.179-.009-.266-.009s-.176,0-.254.007h-.052c-.1.007-.19.013-.287.013a2.476,2.476,0,0,1-.252-.013,4.2,4.2,0,0,0-.48-.025c-.177,0-.354.007-.54.015l-.244.01a4.135,4.135,0,0,0-1.234.417l-.021.009c-.142.063-.264.118-.354.151a10.981,10.981,0,0,0-1.361.625,7.579,7.579,0,0,0-1.09,1.515l-.03.047-.02.031c-.024.038-.059.089-.1.15a5.913,5.913,0,0,0-.539.914,9.62,9.62,0,0,0-.424,2.077c-.01.115-.027.234-.045.359l0,.006h0a3.836,3.836,0,0,0-.048,1.024,6.727,6.727,0,0,0,.518,1.892,11.2,11.2,0,0,0,1.563,2.281c.506.463.926.878,1.249,1.233a14.06,14.06,0,0,0,1.829,1.641c.1.057.179.1.256.148a5.116,5.116,0,0,1,.836.573,31.789,31.789,0,0,1,2.358,2.218,5.159,5.159,0,0,0,.737.766c.123.1.441.416.779.747.521.511,1.111,1.091,1.345,1.267.091.069.175.131.256.191l.063.046c.242.179.472.349.806.637.282.245.511.431.663.554.1.08.17.139.2.165.063.063,1.484,1.262,2.111,1.782.249.206.442.371.6.5l.053.044.038.033c.206.176.355.3.529.437a1.72,1.72,0,0,0,.229.153,1.635,1.635,0,0,1,.35.283c.156.145.249.226.317.285l.011.01a1.923,1.923,0,0,1,.252.251.562.562,0,0,1,.081.508h-37.87Zm6.184-28.167a2,2,0,0,0-2,2v7a2,2,0,0,0,2,2h6.5a2,2,0,0,0,2-2v-7a2,2,0,0,0-2-2Z" transform="translate(13374.468 5113.634)" fill="#f4f7f8"/>
    <path id="Контур_608" data-name="Контур 608" d="M2144.094,1431.958h-4.051c.022.513-.015,1.455-.047,2.285a44.256,44.256,0,0,1-.345,6.126c-.33,1.837-1.183,3.953-1.212,5.726a2.881,2.881,0,0,0,3.114,2.955c3.359.059,4.993-2.215,5.95-5.177a27.919,27.919,0,0,0,1.166-7.694A59.531,59.531,0,0,0,2144.094,1431.958Zm7.7-25.116a.6.6,0,0,1,.961.707,2.8,2.8,0,0,1-.32.359,5.518,5.518,0,0,1,1.13.814,16.23,16.23,0,0,0,2.392,1.717c1.219.749,2.291,1.57,3.755.91a.6.6,0,0,1,.492,1.084,3.911,3.911,0,0,1-1.039.308c-.79,2.7-1.091,7.156.2,9.737a24.058,24.058,0,0,0,2.746,1.283,3.527,3.527,0,0,0,1.847-2.542.6.6,0,0,1,1.166.27,5.045,5.045,0,0,1-1.6,2.774,28.646,28.646,0,0,0,9.354,1.675.593.593,0,0,1,.033,1.186,30.7,30.7,0,0,1-13.753-3.423c-4.6-2.473-7.841-5.876-11.709-9.188-2.728-2.336-6.284-4.453-9.28-6.58-3.03-2.152-7.326-3.149-10.186-.229-2.348,2.4-1.991,5.824.05,8.331a34.28,34.28,0,0,0,4.737,4.553c.867.729,1.715,1.442,2.52,2.208,3.2,3.045,5.06,4.563,7.61,6.643.692.564,1.424,1.162,1.8,1.467a61.248,61.248,0,0,1,5.763,5.413c2.019,2.153,7.4,9.1,8.138,11.714a.6.6,0,0,1-1.153.321c-.649-2.3-5.814-9.016-7.615-10.958a14.423,14.423,0,0,0,0,3.527c.274,1.883,1.016,4.74,3.378,6.166a.6.6,0,0,1-.623,1.014,8.4,8.4,0,0,1-3.568-5.179c-.112.444-.236.884-.375,1.312-1.121,3.474-3.206,6.069-7.106,6a4.06,4.06,0,0,1-4.29-4.161c.031-1.913.879-3.977,1.225-5.911a28.684,28.684,0,0,0,.375-4.661c.016-1.658.073-1.279-.675-.1-2.312,3.648-10.8,9.582-14.274,4.847-2.1-2.864-.073-5.175,1.595-7.072.386-.439.748-.851,1.009-1.219l-48.076,0c-.939-.025-4.639-.637-4.652-4.619l0-36.483a4.649,4.649,0,0,1,4.654-4.621h65.461a4.65,4.65,0,0,1,4.654,4.621v5a27.516,27.516,0,0,1,8.289.856,18.576,18.576,0,0,1,6.177,3.316,77.794,77.794,0,0,1,20.683,23.767.6.6,0,0,1-1.045.581,76.521,76.521,0,0,0-20.364-23.4,17.456,17.456,0,0,0-5.793-3.12,26.411,26.411,0,0,0-7.946-.81v10.769c.891-.115,2.766-.314,3.26-.973Zm-25.787,29.812a.357.357,0,0,1,.084-.709c1.414.169,3.281-1.727,3.851-2.877a.358.358,0,0,1,.644.313C2129.876,1434.819,2127.76,1436.862,2126.01,1436.653Zm14.785,3.392a.356.356,0,0,1-.011-.712c2.695-.051,1.3,4.839.125,6.2a.358.358,0,0,1-.542-.466C2141.159,1444.152,2142.556,1440.012,2140.8,1440.045Zm-53.384-32.872a.357.357,0,0,1,0-.715h1.144a.357.357,0,0,1,0,.715Zm0,4.661a.357.357,0,0,1,0-.714h1.144a.357.357,0,0,1,0,.714Zm3.273,2.123v-2.179a1.384,1.384,0,0,1-1.126-1.422v-2.514a1.283,1.283,0,0,1,1.126-1.422v-2.179h-5.307v2.179a1.384,1.384,0,0,1,1.126,1.422v2.514a1.384,1.384,0,0,1-1.126,1.422v2.179Zm.72-2.171v2.171h.719a.753.753,0,0,0,.752-.746v-1.425Zm0-7.544v2.171h1.471v-1.425a.753.753,0,0,0-.752-.746Zm1.471,4.5v-1.615h-1.831c-.494,0-.767.178-.767.715v.9Zm0,.714h-2.6v.9c0,.3.185.715.538.715h2.06Zm-8.218,4.5v-2.171h-1.567v1.425a.753.753,0,0,0,.751.746Zm0-7.544v-2.171h-.815a.753.753,0,0,0-.751.746v1.425Zm-1.567,3.025v1.633h2.156c.352,0,.538-.411.538-.715v-.9Zm0-.677,2.693-.019v-.9c0-.3-.185-.715-.538-.715h-2.156Zm47.175,12.791a.6.6,0,0,1,0-1.191h.393a28.765,28.765,0,0,1-3.562-3.581c-2.427-2.979-2.745-7.076.024-9.9,3.287-3.357,8.2-2.422,11.737.09,2.8,1.992,5.751,3.856,8.479,5.938v-22.045a3.454,3.454,0,0,0-3.455-3.43h-65.461a3.454,3.454,0,0,0-3.454,3.43l0,36.483a3.458,3.458,0,0,0,3.457,3.43h64.226l-.51-.416c-2.578-2.1-4.459-3.636-7.681-6.7-.75-.714-1.563-1.4-2.4-2.1Zm-15.925,0a.6.6,0,0,1,0-1.191h10.984a.6.6,0,0,1,0,1.191Zm-15.925,0a.6.6,0,1,1,0-1.191H2109.4a.6.6,0,0,1,0,1.191Zm-15.925,0a.6.6,0,0,1,0-1.191h10.984a.6.6,0,0,1,0,1.191Zm60.891.553a.359.359,0,0,1-.633-.338,9.192,9.192,0,0,1,2.261-2.561.357.357,0,0,1,.458.547,8.51,8.51,0,0,0-2.087,2.352Zm-15.019-8.94a.358.358,0,0,1,.636-.33c.784,1.489,3.279,4.092,5.134,3.6a5.986,5.986,0,0,0,3.647-3.349.358.358,0,0,1,.672.248,6.691,6.691,0,0,1-4.133,3.79C2132.084,1417.719,2129.318,1414.972,2128.365,1413.165Zm29.569-.451a8.241,8.241,0,0,1-2.575-1.249,17.378,17.378,0,0,1-2.595-1.864,3.153,3.153,0,0,0-3.217-.741c-.313.054-.644.11-1.009.152v4.871c3.021,2.617,5.807,5.454,9.2,7.629A18.473,18.473,0,0,1,2157.934,1412.714Zm-19.45,19.244h-10.6a9.3,9.3,0,0,1-1.49,2c-1.385,1.576-3.071,3.494-1.529,5.593,2.718,3.7,9.667-1.365,11.674-3.937A12.741,12.741,0,0,0,2138.484,1431.958Zm-54.64-28.907h8.281a1.948,1.948,0,0,1,1.951,1.938v8.222a1.948,1.948,0,0,1-1.951,1.938h-8.281a1.948,1.948,0,0,1-1.951-1.938v-8.223A1.948,1.948,0,0,1,2083.844,1403.051Z" transform="translate(-1200.77 -936.237)" fill="#7093a8"/>
  </g>
</svg>
