<svg xmlns="http://www.w3.org/2000/svg" width="63" height="99" viewBox="0 0 63 99">
  <g id="bill_icon" data-name="bill icon" transform="translate(-1393 -411)">
    <path id="Контур_618" data-name="Контур 618" d="M-12496.911-4608.37a2.289,2.289,0,0,1-.635-.086l-.206-.061a3.277,3.277,0,0,1-.983-.388c-.087-.053-.183-.1-.284-.158l-.015-.008a2.612,2.612,0,0,1-.855-.615c-.053-.066-.1-.129-.153-.19l-.022-.027a3.068,3.068,0,0,1-.527-.8c-.011-.025-.021-.049-.031-.073l-.022-.053a2.514,2.514,0,0,1-.275-1.047c0-.135,0-.283.009-.427l0-.064a4.114,4.114,0,0,0-.011-.742c-.036-.16-.017-2.953,0-4.6,0-.063,0-.1,0-.1s0-.042,0-.107c.012-.3.045-1.09.058-1.2.016-.143-.047-1.517-.062-1.672a3.774,3.774,0,0,1,0-.379v-.048a1.3,1.3,0,0,0,0-.213,1.841,1.841,0,0,1,.452-.687,5.159,5.159,0,0,0,.737-.907,2.742,2.742,0,0,0,.373-1.233,5.977,5.977,0,0,0-.11-1.424c-.027-.08-.049-.15-.068-.213l-.007-.021,0-.008a2.657,2.657,0,0,0-.185-.477l-.055-.1-.033-.063-.007-.014c-.1-.182-.207-.388-.36-.635a2.733,2.733,0,0,0-.5-.656c-.14-.108-.312-.265-.313-.267l.172-.624-.094-5.873.031-44.767v0a4.407,4.407,0,0,1,0-1.322l.034-.077.033-.076.006-.013a7.81,7.81,0,0,1,.488-.992,9.282,9.282,0,0,1,.813-1.017,4.316,4.316,0,0,1,1.095-.671c.063-.025.126-.052.192-.081a3.181,3.181,0,0,1,.6-.214,8.88,8.88,0,0,1,1.239-.127l.072,0c.07,0,.264.007.559.007s.712,0,1.17-.007h26.962a13.3,13.3,0,0,1,1.561.388c.135.079.415.269.62.408l.019.012.1.069.089.06a4.119,4.119,0,0,1,.766.935c.045.135.372.939.5,1.252a5.718,5.718,0,0,1,.185,1.374c-.013.167,0,1.565,0,2.159v.044l-.031,13.845.031,10.034-.024.036c-.08.116-.324.47-.506.726a11.024,11.024,0,0,0-.719,1.3,18.224,18.224,0,0,0-.267,1.873c0,.12.056.639.113,1.189l.007.061c.065.606.146,1.36.146,1.549a7.591,7.591,0,0,0,.312,1.609c.079.247.139.509.187.719a3.64,3.64,0,0,0,.1.373c.032.088.128.288.221.48.108.226.211.441.277.6a2.819,2.819,0,0,1,.124.876v.035a2.193,2.193,0,0,0,.017.23c.025.139.009,1.309,0,1.805,0,.022,0,.035,0,.037v2.206l-.031,25.525a4.546,4.546,0,0,1-.153,1.129l-.02.046-.02.046c-.177.417-.588,1.389-.931,1.533-.37.155-1.313.608-1.453.688a3.809,3.809,0,0,1-.875.267c-.109.009-1.191.014-2.344.018h-.114c-.526,0-.981,0-1.059.006s-.793,0-2.167,0c-2.365,0-5.814,0-5.814,0h-17.469A2.471,2.471,0,0,1-12496.911-4608.37Zm23.473-17.191h0l1.5.75,1.484-.828.047-41.093-1.562.64-1.408-.734-1.531.734-1.516-.734-1.452.656-1.452-.656-1.547.656-1.5-.656-1.452.656-1.456-.656-1.516.656-1.5-.656-1.469.656-1.5-.656-1.5.656-1.469-.562-.016,41.171,1.484.75,1.468-.687,1.5.687,1.547-.75,1.452.75,1.453-.687,1.53.687,1.472-.687,1.547.687,1.437-.687,1.484.687,1.484-.687,1.546.687,1.406-.75Z" transform="translate(13904.406 5095.498)" fill="#f4f7f8"/>
    <path id="Контур_610" data-name="Контур 610" d="M10592.441,2192.616v4.411a9.588,9.588,0,0,0,.517-3.676C10592.782,2193.123,10592.61,2192.875,10592.441,2192.616Zm-13.417,3.3a.325.325,0,0,1,0-.65h1.477a.325.325,0,0,1,0,.65Zm0-3.681a.325.325,0,0,1,0-.65h1.477a.325.325,0,0,1,0,.65Zm0-3.681a.325.325,0,0,1,0-.65h1.477a.325.325,0,0,1,0,.65Zm-13.02,14.725a.325.325,0,0,1,0-.65h14.681a.325.325,0,0,1,0,.65Zm0-3.681a.325.325,0,0,1,0-.65h4.188a.325.325,0,0,1,0,.65Zm0-3.681a.325.325,0,0,1,0-.65h9.469a.325.325,0,0,1,0,.65Zm0-3.681a.325.325,0,0,1,0-.65h9.469a.325.325,0,0,1,0,.65Zm0-3.681a.325.325,0,0,1,0-.65h9.469a.325.325,0,0,1,0,.65Zm0-3.681a.325.325,0,0,1,0-.65h6.862a.325.325,0,0,1,0,.65Zm0-3.681a.325.325,0,0,1,0-.65h14.681a.325.325,0,0,1,0,.65Zm0-3.681a.325.325,0,0,1,0-.65h14.681a.325.325,0,0,1,0,.65Zm3.224-4.677a.325.325,0,0,1,0-.65h8.233a.325.325,0,0,1,0,.65Zm13.246,34.857,1.283.609,1.16-.551v-40.569l-.873.415c-.262.125-.275.143-.538.018l-1.237-.588-1.262.6a.379.379,0,0,1-.438.006l-1.274-.605-1.246.592a.4.4,0,0,1-.472.005l-1.257-.6-1.267.6a.385.385,0,0,1-.448,0l-1.261-.6-1.188.565c-.3.142-.293.145-.592,0l-1.194-.567-1.3.617a.351.351,0,0,1-.377,0l-1.3-.617-1.295.615a.358.358,0,0,1-.4,0l-1.285-.61-1.326.63a.34.34,0,0,1-.324,0l-1-.474v40.569l1.161.551,1.277-.606a.379.379,0,0,1,.437.008l1.261.6,1.27-.6a.382.382,0,0,1,.445,0l1.261.6,1.29-.612a.362.362,0,0,1,.4,0l1.28.608,1.231-.585a.419.419,0,0,1,.514,0l1.23.584,1.28-.608a.365.365,0,0,1,.408,0l1.286.61,1.217-.578c.273-.13.279-.125.553.006l1.205.572,1.281-.608A.366.366,0,0,1,10582.475,2207.687Zm1.049,1.218-1.254-.6-1.185.562c-.295.141-.29.15-.586.01l-1.2-.572-1.235.586a.41.41,0,0,1-.5,0l-1.242-.59-1.262.6a.379.379,0,0,1-.439.006l-1.274-.6-1.238.588a.4.4,0,0,1-.479.01l-1.258-.6-1.265.6a.381.381,0,0,1-.444,0l-1.266-.6-1.274.6a.374.374,0,0,1-.43,0l-1.271-.6-1.243.59c-.207.1-.248.114-.458.014l-1.414-.671c-.172-.081-.187-.218-.187-.376v-41.206a.327.327,0,0,1,.479-.288l1.336.634,1.3-.618a.349.349,0,0,1,.375,0l1.3.616,1.265-.6a.386.386,0,0,1,.453,0l1.258.6,1.274-.6a.366.366,0,0,1,.411-.007l1.289.612,1.279-.607a.378.378,0,0,1,.435.009l1.262.6,1.28-.609a.364.364,0,0,1,.405,0l1.289.612,1.267-.6a.38.38,0,0,1,.44,0l1.268.6,1.261-.6a.382.382,0,0,1,.445,0l1.27.6,1.335-.634a.327.327,0,0,1,.479.288v41.266a.326.326,0,0,1-.187.315l-1.4.667A.389.389,0,0,1,10583.523,2208.9Zm10.049,3.116a.543.543,0,0,1-.933.554c-.068-.116-.135-.238-.2-.366v8.815a4.608,4.608,0,0,1-4.608,4.582h-4.731a12.393,12.393,0,0,0,3.979,2.863.324.324,0,0,1-.261.594,12.633,12.633,0,0,1-4.56-3.457h-21.127c4.115,5.306,14.126,14.159,19.919,16.56a9.526,9.526,0,0,0,3.994.855.54.54,0,0,1,.052,1.079,9.2,9.2,0,0,1-3.076-.437,28.048,28.048,0,0,1,2.718,3.479.543.543,0,0,1-.907.6,22.5,22.5,0,0,0-4.671-5.261c-5.569-2.86-15.562-11.48-19.378-16.872h-.927a4.606,4.606,0,0,1-4.607-4.582c0-.12.015-1.051-.012-1.082a38.694,38.694,0,0,1-4.975-6.5,6.783,6.783,0,0,1-1-4.992,5.336,5.336,0,0,1,4.782-3.771l-4.351-2.8c-2.37-1.395-4.314-3.871-2.675-6.542a4.81,4.81,0,0,1,2.887-2.108c-1.3-.772-2.459-1.469-2.8-1.736-3.528-2.76-1.553-8.07,2.581-7.576-1.984-3.4,1.676-7.617,5.357-5.491l.218.125-.014-24.82a4.592,4.592,0,0,1,4.715-4.746h28.868a4.608,4.608,0,0,1,4.609,4.582v25.584a2.891,2.891,0,0,1,3.888,1.694,24.459,24.459,0,0,0,2.7,5.21,19.223,19.223,0,0,1,2.907,9.661,52.712,52.712,0,0,0,.763,8.229c1.146,7.436.825,13.628.986,21.191a22.6,22.6,0,0,0,3.511,12.573.542.542,0,0,1-.937.546,26.984,26.984,0,0,1-2.964-6.855,17.55,17.55,0,0,1-.431,1.85.542.542,0,0,1-1.041-.3,27.523,27.523,0,0,0,.774-7.846c-.151-7.234.111-13.767-.977-21a53.5,53.5,0,0,1-.771-8.382,18.181,18.181,0,0,0-2.733-9.073,31.442,31.442,0,0,1-2.8-5.393c-1.144-2.506-4.478-.833-4.357,2.8a14.3,14.3,0,0,0,1.074,5.634c.419,1.005,1.875,3.5,2.6,3.79a.541.541,0,0,1-.4,1,1.433,1.433,0,0,1-.162-.076,18.549,18.549,0,0,1-.73,3.447,23.409,23.409,0,0,0-.9,7.108C10592.436,2207.023,10592.476,2210.192,10593.572,2212.021Zm-9.032,9.76a.217.217,0,0,1-.308-.306l4.284-4.258a.217.217,0,0,1,.308.306Zm2.489.056a.217.217,0,0,1-.308-.306l1.732-1.722a.217.217,0,0,1,.308.306Zm-9.457-68.148a.325.325,0,0,1,0-.65h.442a.325.325,0,0,1,0,.65Zm-6.713,0a.325.325,0,0,1,0-.65h4.972a.325.325,0,0,1,0,.65Zm23.689,90.062a.325.325,0,0,1-.251-.6,12.155,12.155,0,0,0,2.548-1.423.324.324,0,0,1,.388.52A12.794,12.794,0,0,1,10594.549,2243.75Zm-2.375-1.192a.325.325,0,0,1-.187-.622,10.739,10.739,0,0,0,4.634-2.8.325.325,0,0,1,.506.409A11.341,11.341,0,0,1,10592.174,2242.558Zm-2.292-58.538a6.042,6.042,0,0,1,1.471-4.2v-26.256a3.521,3.521,0,0,0-3.52-3.5h-28.88a3.515,3.515,0,0,0-3.618,3.686l.026,51.78a4.07,4.07,0,0,1,1.38,4.166,4.6,4.6,0,0,1-1.4,2.566v8.76a3.521,3.521,0,0,0,3.519,3.5h28.978a3.52,3.52,0,0,0,3.519-3.5v-30.231a15.28,15.28,0,0,1-1.47-6.773Zm-35.614,2.753,0-6.974-.763-.44c-3.243-1.872-6.387,2.971-2.412,5.44Zm0,8.4,0-7.1-3.986-2.454c-3.983-2.414-6.747,2.48-3.5,5.018Zm-3.253-.7c-1.407-.79-3.288.153-4.071,1.429-1.294,2.11.51,3.995,2.3,5.049l5.028,3.261,0-7.77Zm-1.707,14.28a5.454,5.454,0,0,0,.733,3.875,31.037,31.037,0,0,0,4.2,5.683v-5.4a2.694,2.694,0,0,1-.65.13.541.541,0,0,1-.077-1.079c1.182-.085,1.954-1.412,2.152-2.455.845-4.449-5.152-4.97-6.361-.75Z" transform="translate(-9151.28 -1737.983)" fill="#7093a8"/>
  </g>
</svg>
