<svg xmlns="http://www.w3.org/2000/svg" width="21.999" height="36" viewBox="0 0 21.999 36">
  <path id="Контур_220" data-name="Контур 220" d="M13339.938-12469.5a.679.679,0,0,1-.7-.689v-2.216h-8.4v2.216a.711.711,0,0,1-.7.689h-3.422a.679.679,0,0,1-.7-.689v-22.112a.679.679,0,0,1,.7-.689h10.927a7.891,7.891,0,0,1-1.534-3.842h-2.6a1.314,1.314,0,0,1-1.105-.64,1.448,1.448,0,0,1-.052-1.428l3.121-5.909a1.278,1.278,0,0,1,1.155-.69h6.943a1.451,1.451,0,0,1,1.157.69l3.119,5.959a1.446,1.446,0,0,1-.05,1.428,1.421,1.421,0,0,1-1.157.59h-2.6a7.95,7.95,0,0,1-1.549,3.842h.881a.68.68,0,0,1,.7.689v22.112a.71.71,0,0,1-.7.689Zm.755-1.428h1.962v-1.478h-1.962Zm-13.283,0h2.013v-1.478h-2.013Zm0-2.907h15.245v-8.174h-15.245Zm15.245-9.553v-8.273h-15.245v8.273Zm-3.271-9.652h1.358a7.189,7.189,0,0,0,1.868-3.793h-5.093A7.38,7.38,0,0,0,13339.384-12493.041Zm-5.785-5.171h12.931l-3.07-5.909h-6.791Zm.3,21.128a.681.681,0,0,1-.705-.691.681.681,0,0,1,.705-.688h2.264a.681.681,0,0,1,.7.688.713.713,0,0,1-.7.691Zm0-9.851a.681.681,0,0,1-.705-.688.68.68,0,0,1,.705-.689h2.264a.68.68,0,0,1,.7.689.712.712,0,0,1-.7.688Z" transform="translate(-13326.002 12505.501)" fill="#373737"/>
</svg>
