<svg xmlns="http://www.w3.org/2000/svg" width="20.001" height="22.001" viewBox="0 0 20.001 22.001">
  <path id="Контур_227" data-name="Контур 227" d="M13459.215-12066h-10.27a.966.966,0,0,1-.945-.952.959.959,0,0,1,.945-.95h.021c.473-.007.945,0,1.422,0h8.7a14.24,14.24,0,0,0,1.582-.048,7.2,7.2,0,0,0,1.568-.426,7.383,7.383,0,0,0,1.448-.852,7.324,7.324,0,0,0,1.11-1.117,7.461,7.461,0,0,0,.843-1.455,7.316,7.316,0,0,0,.424-1.578,7.52,7.52,0,0,0,0-1.65,7.3,7.3,0,0,0-.424-1.576,7.369,7.369,0,0,0-.842-1.457,7.566,7.566,0,0,0-1.111-1.118,7.288,7.288,0,0,0-1.444-.849,7.21,7.21,0,0,0-1.577-.428c-.114-.014-.234-.024-.349-.031-.429-.028-.862-.016-1.29-.016l-2.3,0c-.954,0-1.909,0-2.863,0h-1.187q1.044,1.058,2.09,2.116c.629.643,1.263,1.282,1.894,1.921a.974.974,0,0,1,0,1.345.95.95,0,0,1-1.338,0l-.7-.7q-1.5-1.522-3-3.041l-1.895-1.921a.968.968,0,0,1,0-1.346c.229-.228.461-.458.688-.69q1.5-1.5,3-3c.629-.635,1.264-1.266,1.9-1.9a.959.959,0,0,1,1.335,0,.969.969,0,0,1,0,1.349c-.227.228-.46.456-.689.689l-3,3c-.093.091-.182.183-.275.277h1.173q2.188,0,4.374.006h.486a14.81,14.81,0,0,1,2.621.146,8.207,8.207,0,0,1,5.452,3.783,8.239,8.239,0,0,1,.823,6.746,8.254,8.254,0,0,1-4.378,4.979,8.29,8.29,0,0,1-3.391.754Zm1.343-1.933.07-.011Zm.144-.021.105-.014Zm1.61-.452c.021-.008.041-.016.062-.025Zm1.26-.729a.113.113,0,0,0,.021-.016A.113.113,0,0,1,13463.571-12069.134Zm1.3-1.308a.137.137,0,0,0,.017-.018A.137.137,0,0,1,13464.874-12070.441Zm.717-1.228a.55.55,0,0,1,.023-.058A.55.55,0,0,0,13465.591-12071.669Zm.493-3.241c0-.025-.009-.049-.012-.071C13466.074-12074.959,13466.08-12074.935,13466.084-12074.91Zm-.021-.15c0-.034-.01-.069-.015-.1Zm-.379-1.449Zm-.069-.17a.5.5,0,0,1-.023-.06A.5.5,0,0,0,13465.614-12076.68Zm-.724-1.266a.1.1,0,0,0-.017-.02A.1.1,0,0,1,13464.891-12077.945Zm-1.127-1.178Zm-.169-.131a.176.176,0,0,0-.023-.02A.176.176,0,0,1,13463.595-12079.254Zm-1.222-.723-.062-.024C13462.332-12079.992,13462.353-12079.983,13462.373-12079.977Zm-1.566-.463Z" transform="translate(-13447.999 12088.001)" fill="#373737"/>
</svg>
