<svg xmlns="http://www.w3.org/2000/svg" width="20" height="20" viewBox="0 0 20 20">
  <path id="image" d="M-475.026-15114.391h-.138c-.007,0-.014,0-.021-.016h-.147c-.007,0-.014-.016-.021-.016h-.175a.023.023,0,0,1-.025-.016h-.139c-.007-.016-.015-.016-.022-.016h-.039a.093.093,0,0,0-.062-.016h-.037c-.008,0-.016,0-.023-.016h-.068a.12.12,0,0,1-.063-.031h-.064c-.01,0-.02-.016-.03-.016h0c-.042-.016-.083-.016-.124-.031h0a.029.029,0,0,0-.029-.016h0a4.262,4.262,0,0,1-1.583-.828h0c-.007,0-.014-.016-.021-.016h0c-.006,0-.014-.016-.02-.016s0,0,0-.016c-.008,0-.016,0-.023-.016h0c-.007,0-.014-.016-.021-.016h-.009c0-.016-.008-.016-.012-.016,0-.016-.007-.016-.011-.016h-.011c0-.016-.008-.016-.012-.016H-478c0-.016-.009-.016-.013-.016,0-.016,0-.016-.005-.016a4.449,4.449,0,0,1-.541-.578h0a4.445,4.445,0,0,1-.912-2.7v-11.109a4.44,4.44,0,0,1,4.444-4.437h11.111a4.439,4.439,0,0,1,4.444,4.438v11.109a4.391,4.391,0,0,1-.721,2.422h0a4.357,4.357,0,0,1-.47.609h0l-.091.094h0c-.023.031-.048.047-.072.078h-.005s-.01,0-.015.016h-.005c-.005.016-.01.016-.015.016h-.007c-.008.016-.017.031-.025.031s-.006.016-.01.016h-.014s-.005.016-.008.016-.009.016-.014.016h-.008c-.011.016-.022.016-.032.031h0s-.009.016-.014.016h-.008s-.01.016-.015.016-.005.016-.008.016h-.014s-.006.016-.009.016c-.008.016-.016.016-.023.016s-.007.016-.011.016h-.012s-.008.016-.012.016-.008,0-.012.016h-.013s-.007,0-.01.016h-.018c0,.016-.009.016-.013.016-.005.016-.01.016-.016.016h-.009c-.005.016-.01.016-.015.016,0,.016-.006.016-.01.016h-.017c0,.016-.005.016-.008.016-.008.016-.016.016-.024.016s0,0-.006.016h-.02s0,0-.007.016c-.006,0-.012,0-.019.016h-.008c-.007,0-.014,0-.021.016h0a.023.023,0,0,0-.024.016s-.006.016-.009.016h-.017s-.007,0-.01.016c-.005,0-.01,0-.016.016h-.01c-.008,0-.016,0-.023.016h-.006c-.007.016-.015.016-.022.016h-.008c-.007.016-.013.016-.02.016h-.007c-.007.016-.015.016-.022.016s0,.016,0,.016h-.027s0,.016,0,.016h-.023s0,0-.007.016c-.007,0-.015.016-.022.016h-.005a.025.025,0,0,0-.026.016h0c-.01,0-.019.016-.028.016h0c-.008,0-.016.016-.025.016s0,.016-.005.016h-.028c-.019.016-.038.016-.058.031,0,0,0,0,0,.016h-.03a.023.023,0,0,1-.025.016h0a.107.107,0,0,1-.058.031h-.006c-.007,0-.015.016-.023.016h-.007a.027.027,0,0,1-.027.016h0c-.011,0-.021.016-.031.016s0,0,0,.016h-.033c-.007,0-.014.016-.021.016h-.009a.106.106,0,0,0-.058.031h-.03s-.005,0-.008.016h-.029a.109.109,0,0,1-.06.031h-.006a.023.023,0,0,0-.024.016h-.006a.027.027,0,0,0-.028.016h-.037a.026.026,0,0,1-.027.016s0,.016-.007.016h-.031a.028.028,0,0,0-.029.016h-.037c-.009,0-.018.016-.027.016h-.008c-.008,0-.016.016-.024.016h-.007a.094.094,0,0,0-.062.016h-.039c-.009,0-.019.016-.028.016h0c-.011,0-.022.016-.033.016h-.037c-.009,0-.018.016-.026.016h-.007a.029.029,0,0,0-.029.016h-.074c-.008.016-.016.016-.024.016h-.009a.093.093,0,0,1-.062.016h-.042c-.008.016-.016.016-.024.016h-.082a.022.022,0,0,1-.024.016h-.041a.034.034,0,0,1-.033.016h-.107c-.011,0-.022.016-.033.016h-.185a.026.026,0,0,1-.027.016h-.117a.027.027,0,0,0-.028.016h-11.261Zm-2.371-15.562v11.109a2.4,2.4,0,0,0,.2.969l4.726-6.016a.9.9,0,0,1,.571-.312h0a.867.867,0,0,1,.757.3l3.228,3.969,1.886-1.891a.872.872,0,0,1,1.249.047l3.122,3.656a2.357,2.357,0,0,0,.11-.719v-11.109a2.373,2.373,0,0,0-2.37-2.375h-11.111A2.374,2.374,0,0,0-477.4-15129.953Zm8.569,4.031a3,3,0,0,1,2.976-3,3,3,0,0,1,2.975,3,3,3,0,0,1-2.975,3A3.005,3.005,0,0,1-468.828-15125.922Z" transform="translate(479.47 15134.391)" fill="#004675"/>
</svg>
