<svg xmlns="http://www.w3.org/2000/svg" width="75" height="16" viewBox="0 0 75 16">
  <path id="Path_20" data-name="Path 20" d="M-5596.817-49.861a4.439,4.439,0,0,1-1.648-1.294.715.715,0,0,1-.177-.444.691.691,0,0,1,.333-.572.817.817,0,0,1,.444-.141.781.781,0,0,1,.649.333,2.791,2.791,0,0,0,1.078.848,3.546,3.546,0,0,0,1.475.293,2.728,2.728,0,0,0,1.412-.373,2.684,2.684,0,0,0,1.015-1.1,3.654,3.654,0,0,0,.38-1.722v-.778a3.66,3.66,0,0,1-1.3,1.365,3.439,3.439,0,0,1-1.823.492,3.961,3.961,0,0,1-2.1-.563,3.856,3.856,0,0,1-1.443-1.563,4.89,4.89,0,0,1-.515-2.27,4.638,4.638,0,0,1,.555-2.286,3.981,3.981,0,0,1,1.554-1.563,4.535,4.535,0,0,1,2.267-.563,4.461,4.461,0,0,1,2.244.563,4.175,4.175,0,0,1,.574.392l-.011-.939h1.551v4.209c0,.062,0,.124,0,.188v3.429a4.748,4.748,0,0,1-.555,2.285A4.125,4.125,0,0,1-5592.418-50a4.385,4.385,0,0,1-2.277.6,5.022,5.022,0,0,1-2.122-.452Zm.706-10.086a2.677,2.677,0,0,0-1.007,1.063,3.222,3.222,0,0,0-.365,1.54,3.183,3.183,0,0,0,.365,1.532,2.693,2.693,0,0,0,1.007,1.056,2.785,2.785,0,0,0,1.45.381,2.79,2.79,0,0,0,1.451-.381,2.637,2.637,0,0,0,1-1.055,3.234,3.234,0,0,0,.356-1.532,3.279,3.279,0,0,0-.356-1.54,2.625,2.625,0,0,0-1-1.063,2.791,2.791,0,0,0-1.451-.381,2.786,2.786,0,0,0-1.45.381Zm39.781,6.54a3.349,3.349,0,0,1-1.363-1.389,4.583,4.583,0,0,1-.492-2.2v-4.715h1.618V-57a2.567,2.567,0,0,0,.689,1.944,2.543,2.543,0,0,0,1.832.658,2.707,2.707,0,0,0,1.213-.27,2.144,2.144,0,0,0,.855-.73,1.81,1.81,0,0,0,.31-1.032v-5.285h1.617v7.888a.8.8,0,0,1-.222.579.776.776,0,0,1-.587.23.783.783,0,0,1-.578-.23.786.786,0,0,1-.23-.579V-54a3.523,3.523,0,0,1-1.205.785,3.989,3.989,0,0,1-1.49.278,4.032,4.032,0,0,1-1.965-.477Zm10.772-.119a4.169,4.169,0,0,1-1.577-1.587,4.478,4.478,0,0,1-.571-2.246,4.744,4.744,0,0,1,.53-2.246,4,4,0,0,1,1.458-1.579,3.866,3.866,0,0,1,2.069-.572,3.9,3.9,0,0,1,1.713.381,3.883,3.883,0,0,1,1.347,1.064v-5.1h1.617v11.587a.809.809,0,0,1-.809.809.809.809,0,0,1-.809-.809l0-.075a4.391,4.391,0,0,1-.535.368,4.3,4.3,0,0,1-2.211.58,4.384,4.384,0,0,1-2.227-.58Zm.792-6.412a2.808,2.808,0,0,0-1.015,1.063,3.092,3.092,0,0,0-.373,1.516,3.129,3.129,0,0,0,.373,1.524,2.789,2.789,0,0,0,1.015,1.071,2.715,2.715,0,0,0,1.435.389,2.715,2.715,0,0,0,1.434-.389,2.722,2.722,0,0,0,1.007-1.071,3.183,3.183,0,0,0,.365-1.524,3.135,3.135,0,0,0-.365-1.516,2.736,2.736,0,0,0-1.007-1.063,2.714,2.714,0,0,0-1.434-.389,2.713,2.713,0,0,0-1.434.388Zm-22.361,6.428a3.982,3.982,0,0,1-1.553-1.563,4.6,4.6,0,0,1-.555-2.27,4.634,4.634,0,0,1,.555-2.285,3.982,3.982,0,0,1,1.553-1.563,4.535,4.535,0,0,1,2.267-.563,4.458,4.458,0,0,1,2.243.563,4.054,4.054,0,0,1,1.553,1.563,4.577,4.577,0,0,1,.563,2.285,4.6,4.6,0,0,1-.555,2.27,3.992,3.992,0,0,1-1.545,1.563,4.487,4.487,0,0,1-2.259.563,4.535,4.535,0,0,1-2.267-.565Zm.816-6.436a2.673,2.673,0,0,0-1.006,1.064,3.206,3.206,0,0,0-.365,1.54,3.167,3.167,0,0,0,.365,1.532,2.68,2.68,0,0,0,1.006,1.055,2.787,2.787,0,0,0,1.451.381,2.784,2.784,0,0,0,1.45-.381,2.624,2.624,0,0,0,1-1.055,3.217,3.217,0,0,0,.357-1.532,3.268,3.268,0,0,0-.357-1.54,2.608,2.608,0,0,0-1-1.064,2.786,2.786,0,0,0-1.45-.381,2.789,2.789,0,0,0-1.448.38Zm-15.069,6.428a4.077,4.077,0,0,1-1.562-1.579,4.544,4.544,0,0,1-.562-2.246,4.707,4.707,0,0,1,.547-2.278,3.942,3.942,0,0,1,1.529-1.572,4.386,4.386,0,0,1,2.219-.563,3.939,3.939,0,0,1,3.107,1.428.6.6,0,0,1,.158.413.7.7,0,0,1-.349.587.618.618,0,0,1-.364.111.8.8,0,0,1-.618-.287,2.525,2.525,0,0,0-.864-.627,2.711,2.711,0,0,0-1.07-.2,2.58,2.58,0,0,0-1.98.818,3.053,3.053,0,0,0-.762,2.167,3.223,3.223,0,0,0,.357,1.532,2.632,2.632,0,0,0,1,1.056,2.816,2.816,0,0,0,1.466.381,2.631,2.631,0,0,0,1.744-.556,1,1,0,0,1,.586-.222.674.674,0,0,1,.413.141.741.741,0,0,1,.3.572.593.593,0,0,1-.191.428,4.025,4.025,0,0,1-2.854,1.064,4.45,4.45,0,0,1-2.251-.57Zm-26.332.008a3.978,3.978,0,0,1-1.554-1.563,4.6,4.6,0,0,1-.555-2.27,4.638,4.638,0,0,1,.555-2.285,3.979,3.979,0,0,1,1.554-1.563,4.534,4.534,0,0,1,2.267-.563,4.458,4.458,0,0,1,2.243.563,4.05,4.05,0,0,1,1.553,1.563,4.567,4.567,0,0,1,.563,2.285,4.594,4.594,0,0,1-.555,2.27,4,4,0,0,1-1.545,1.563,4.488,4.488,0,0,1-2.26.563,4.533,4.533,0,0,1-2.265-.564Zm.816-6.436a2.675,2.675,0,0,0-1.007,1.064,3.216,3.216,0,0,0-.364,1.54,3.172,3.172,0,0,0,.365,1.532,2.681,2.681,0,0,0,1.007,1.055,2.785,2.785,0,0,0,1.45.381,2.787,2.787,0,0,0,1.451-.381,2.636,2.636,0,0,0,1-1.055,3.234,3.234,0,0,0,.357-1.532,3.28,3.28,0,0,0-.356-1.54,2.624,2.624,0,0,0-1-1.063,2.79,2.79,0,0,0-1.451-.381,2.785,2.785,0,0,0-1.449.38Zm35.408,6.936a2.131,2.131,0,0,1-1.229-.373,2.421,2.421,0,0,1-.847-1.048,3.683,3.683,0,0,1-.3-1.516v-9.461h1.584v9.46a1.9,1.9,0,0,0,.223.968.653.653,0,0,0,.571.381h.4a.659.659,0,0,1,.516.222.828.828,0,0,1,.2.572.683.683,0,0,1-.3.571,1.279,1.279,0,0,1-.777.222Zm-15.94-.23a.784.784,0,0,1-.23-.579v-7.873h1.617v7.873a.8.8,0,0,1-.222.579.777.777,0,0,1-.586.23.783.783,0,0,1-.579-.23Zm-24.169.23a2.131,2.131,0,0,1-1.229-.373,2.434,2.434,0,0,1-.847-1.048,3.683,3.683,0,0,1-.3-1.516v-9.461h1.585v9.46a1.9,1.9,0,0,0,.222.968.655.655,0,0,0,.571.381h.4a.659.659,0,0,1,.516.222.828.828,0,0,1,.2.572.681.681,0,0,1-.3.571,1.275,1.275,0,0,1-.777.222Zm24.01-10.4a1.006,1.006,0,0,1-.309-.738,1.006,1.006,0,0,1,.309-.738,1,1,0,0,1,.737-.309,1.006,1.006,0,0,1,.737.309,1.01,1.01,0,0,1,.309.738,1.011,1.011,0,0,1-.309.738,1.007,1.007,0,0,1-.737.31,1,1,0,0,1-.737-.31Z" transform="translate(5613.973 65.408)" fill="#a3c6de"/>
</svg>
