<svg xmlns="http://www.w3.org/2000/svg" width="141" height="41" viewBox="0 0 141 41">
  <path id="logo_svg" data-name="logo svg" d="M21098.445-1406v-.751h-2.818v-3.647h.807v2.872h1.508v-2.876h.85v2.882l.5.027q-.035.748-.07,1.493Zm30.295-1.162a1.958,1.958,0,0,1-.084-2.73,2.235,2.235,0,0,1,2.963-.087l-.437.569a1.548,1.548,0,0,0-1.373-.285,1.286,1.286,0,0,0-.6.39,1.193,1.193,0,0,0,.047,1.5c.436.478,1.141.475,2-.022.152.184.293.355.434.523a2.117,2.117,0,0,1-1.559.613A2.1,2.1,0,0,1,21128.74-1407.16Zm24.867.39c-.082-.01-.18-.124-.217-.211-.219-.506-.213-.509-.77-.509a2.218,2.218,0,0,1-.354,0c-.482-.078-.816.045-.9.575-.01.063-.145.144-.229.151-.225.021-.451.007-.7.007.027-.09.043-.164.07-.233.447-1.074.9-2.146,1.34-3.223a.294.294,0,0,1,.324-.211c.678,0,.678,0,.936.609q.577,1.368,1.152,2.735c.039.1.072.194.121.323-.158,0-.3.005-.445.005A2.79,2.79,0,0,1,21153.607-1406.77Zm-1.736-1.456h1.035c-.166-.467-.324-.908-.482-1.35l-.064,0C21152.2-1409.133,21152.037-1408.687,21151.871-1408.226Zm-17.619,1.467v-3.688a20.337,20.337,0,0,1,2.146.106.913.913,0,0,1,.414,1.629.928.928,0,0,1,.574,1.058.994.994,0,0,1-.875.832,9.682,9.682,0,0,1-1.209.062c-.131,0-.264,0-.395,0Zm.822-1.541v.835c.391,0,.744.014,1.1,0a.39.39,0,0,0,.412-.406.381.381,0,0,0-.4-.419c-.146-.009-.295-.011-.443-.011C21135.521-1408.306,21135.3-1408.3,21135.074-1408.3Zm0-1.412v.729c.32,0,.623.014.922,0a.345.345,0,0,0,.352-.358.33.33,0,0,0-.34-.361c-.125-.007-.25-.01-.375-.01C21135.451-1409.717,21135.266-1409.712,21135.078-1409.712Zm-25.361,2.944v-1.435h-1.641v1.421h-.828v-3.618h.824v1.4h1.627v-1.406h.816v3.638Zm9.256,0v-3.606a18.952,18.952,0,0,1,2.021.016,1.2,1.2,0,0,1,1.09,1.274,1.281,1.281,0,0,1-1.117,1.273c-.375.062-.762.057-1.18.084v.96Zm.822-2.891v1.156c.318,0,.623.019.922-.005a.562.562,0,0,0,.525-.566.518.518,0,0,0-.428-.577c-.133-.013-.268-.017-.4-.017C21120.209-1409.668,21120-1409.659,21119.795-1409.659Zm26.666,2.885v-2.9h-1.25v-.73h3.328v.725h-1.252v2.9Zm-32.115-.006v-2.883h-1.273v-.739h3.328v.714h-1.23v2.907Zm25.611,0v-3.63h2.732v.726h-1.918v.692h1.705v.714h-1.7v.767h2v.73Zm-38.158,0v-3.621h2.738v.728h-1.924v.677h1.721v.715h-1.711v.765h2.012v.736Zm-16.105-8.846c-1.322-.005-2.646,0-3.969-.006a1.071,1.071,0,0,1-.139-.025c-.164-2.761-.518-5.521-.568-8.335.275-.02.508-.057.74-.05a2.8,2.8,0,0,0,2.566-1.44,9.689,9.689,0,0,0,1.2-3.233,30.391,30.391,0,0,0,.592-5.576c.051-1.561.068-3.123.1-4.684,0-.057.008-.115.014-.195h16.434v15h3.01c-.049,2.868-.4,5.685-.562,8.525h-4.467c-.186-1.2-.369-2.4-.557-3.614h-13.359q-.3,1.323-.609,2.652c-.059.255-.127.508-.172.766a.212.212,0,0,1-.248.211Zm5.6-18.493c-.029.92-.025,1.843-.088,2.761a19.181,19.181,0,0,1-1.566,7.181h7.4v-10.207h-5.727C21091.309-1434.291,21091.3-1434.207,21091.295-1434.123Zm-31.574,14.331a13.631,13.631,0,0,1-4.469-2.845c-.078-.07-.168-.126-.252-.188v-.059l3.334-4.04c.2.158.383.313.576.458a11.123,11.123,0,0,0,10.479,1.82,6.42,6.42,0,0,0,3.924-3.3.362.362,0,0,1,.248-.179c1.986-.01,3.971-.007,5.955-.006a.555.555,0,0,1,.107.026c-.043.142-.08.281-.127.416a12.74,12.74,0,0,1-10.041,8.62,17.839,17.839,0,0,1-3.625.376A17.654,17.654,0,0,1,21059.721-1419.792Zm96.709-.122a9.34,9.34,0,0,1-5.648-7.616,10.639,10.639,0,0,1,.922-6.411,10.007,10.007,0,0,1,7.121-5.4c.953-.222,1.947-.272,2.922-.4l.012.081a11.975,11.975,0,0,1,5.973,1.422,9.548,9.548,0,0,1,4.982,7.275,10.692,10.692,0,0,1-.613,5.718,9.61,9.61,0,0,1-5.225,5.371,13.01,13.01,0,0,1-5.2,1.123A12.8,12.8,0,0,1,21156.43-1419.913Zm4.457-14.785a4.756,4.756,0,0,0-4.113,2.985,6.422,6.422,0,0,0-.074,4.8,4.661,4.661,0,0,0,3.322,3.007,6.624,6.624,0,0,0,2.2.2,4.825,4.825,0,0,0,4.369-2.756,6.632,6.632,0,0,0,.6-2.773c-.055-.471-.072-.949-.168-1.411a4.758,4.758,0,0,0-3.434-3.854,6.009,6.009,0,0,0-1.771-.254A7.775,7.775,0,0,0,21160.887-1434.7Zm-23.381,15.42a9.372,9.372,0,0,1-6.982-7.7,10.439,10.439,0,0,1,1-7.151,10.235,10.235,0,0,1,7.529-5.333,13.1,13.1,0,0,1,7.6.8,11.062,11.062,0,0,1,2.893,1.848c.066.057.141.105.23.173l-3.184,3.793c-.064-.047-.121-.082-.172-.125a7.009,7.009,0,0,0-4.043-1.613,6.822,6.822,0,0,0-3.035.312,5.068,5.068,0,0,0-3.369,4.546,6.247,6.247,0,0,0,.412,2.74,4.818,4.818,0,0,0,4.4,3.111,7.556,7.556,0,0,0,5.961-2.071c1.1,1.234,2.18,2.452,3.277,3.686-.051.062-.1.123-.148.175a11.147,11.147,0,0,1-6.82,3.167,18.678,18.678,0,0,1-2.057.122A12.022,12.022,0,0,1,21137.506-1419.279Zm-24.6.008c-1.512-.01-3.023-.005-4.535-.005h-.309v-19.9h5.613v11.767c.121-.151.191-.235.258-.322q4.271-5.6,8.535-11.209a.56.56,0,0,1,.506-.258c1.463.012,2.924.006,4.387.006h.342v19.9h-5.617v-11.439l-.061-.031c-.062.077-.127.152-.186.23q-4.228,5.508-8.447,11.019a.534.534,0,0,1-.479.241Zm76.375,0v-7.6h-7.994v7.587h-5.711v-19.89h5.691v7.372h7.992v-7.379h5.74v19.913ZM21075.1-1429.9c-.371-.025-.744-.006-1.061-.006.043-.917.121-1.8.115-2.673s-.092-1.738-.145-2.641c.408,0,.82-.009,1.234.008a.274.274,0,0,1,.2.175,17.407,17.407,0,0,1,.055,4.811c-.031.226-.115.33-.338.33Zm2.391,0c-.393-.012-.785,0-1.211,0a18.289,18.289,0,0,0-.012-5.315c.455,0,.869-.009,1.281.008a.276.276,0,0,1,.2.178,16.812,16.812,0,0,1,.029,4.89c-.027.174-.092.243-.262.243Zm1.152,0c.043-.917.119-1.8.115-2.673s-.092-1.738-.145-2.64c.414,0,.846-.007,1.277.009.057,0,.15.117.158.188a16.448,16.448,0,0,1,.014,4.895.311.311,0,0,1-.2.212c-.2.01-.4.013-.605.013Zm-14.527-.686a17.5,17.5,0,0,1,.021-3.94c.1-.006.193-.017.287-.017q4.248,0,8.5,0c.191,0,.313.016.33.251a21.021,21.021,0,0,1-.008,3.71Zm1.385-1.33h6.336v-1.282h-6.336Zm15.545.845v-2.965h1.434v2.965Zm-7.412-5.912a.436.436,0,0,1-.328-.153,6.536,6.536,0,0,0-4.539-3.221,11.1,11.1,0,0,0-9.021,1.695c-.207.146-.4.308-.617.472-1.1-1.391-2.187-2.769-3.295-4.171.182-.147.352-.29.527-.427a15.107,15.107,0,0,1,7.047-2.969c.631-.1,1.27-.159,1.9-.237h2.133c.627.077,1.256.127,1.875.237,5.018.892,8.527,3.56,10.189,8.388.041.116.068.236.109.378-.123.005-.209.013-.295.013h-2.211Q21075.373-1436.981,21073.635-1436.988Z" transform="translate(-21054.5 1446.498)" fill="#0076c2" stroke="rgba(0,0,0,0)" stroke-width="1"/>
</svg>
