<svg xmlns="http://www.w3.org/2000/svg" width="29" height="29" viewBox="0 0 29 29">
  <path id="logo_svg" data-name="logo svg" d="M21059.811-1419.128a13.889,13.889,0,0,1-4.553-2.917c-.08-.072-.172-.129-.256-.193v-.06c1.125-1.373,2.252-2.748,3.4-4.143.2.162.391.321.586.469a11.279,11.279,0,0,0,10.678,1.866,6.551,6.551,0,0,0,4-3.38.365.365,0,0,1,.252-.184c2.023-.01,4.047-.007,6.068-.006a.6.6,0,0,1,.109.026c-.045.145-.082.288-.129.427a13.009,13.009,0,0,1-10.232,8.838,18.059,18.059,0,0,1-3.693.386A17.892,17.892,0,0,1,21059.811-1419.128Zm15.672-10.362c-.377-.025-.758-.006-1.08-.006.043-.94.123-1.841.117-2.741s-.094-1.782-.146-2.708c.416,0,.836-.009,1.258.008a.279.279,0,0,1,.2.179,17.906,17.906,0,0,1,.057,4.932c-.031.232-.117.338-.344.338Zm2.436,0c-.4-.012-.8,0-1.232,0a18.87,18.87,0,0,0-.014-5.449c.465,0,.887-.009,1.307.008a.284.284,0,0,1,.2.182,17.389,17.389,0,0,1,.029,5.014c-.027.178-.094.249-.268.249Zm1.174,0c.045-.94.123-1.841.119-2.741s-.094-1.782-.148-2.707c.422,0,.861-.007,1.3.009.059,0,.154.12.162.192a16.952,16.952,0,0,1,.014,5.019c-.014.084-.131.213-.207.217-.205.01-.412.013-.617.013Zm-14.8-.7a18.037,18.037,0,0,1,.021-4.04c.1-.007.2-.018.293-.018q4.327,0,8.656,0c.2,0,.318.016.336.257a21.71,21.71,0,0,1-.008,3.8Zm1.41-1.364h6.457v-1.314h-6.457Zm15.84.866v-3.04H21083v3.04Zm-7.553-6.062a.44.44,0,0,1-.334-.156,6.663,6.663,0,0,0-4.625-3.3,11.261,11.261,0,0,0-9.193,1.738c-.211.15-.408.315-.627.484-1.121-1.426-2.23-2.839-3.357-4.277.184-.151.357-.3.537-.437a15.342,15.342,0,0,1,7.18-3.044c.643-.1,1.293-.163,1.939-.243h2.174c.639.079,1.279.13,1.91.243,5.113.915,8.689,3.65,10.383,8.6.041.119.068.242.111.387-.125.006-.213.014-.3.014h-2.252Q21075.758-1436.753,21073.988-1436.76Z" transform="translate(-21054.502 1446.498)" fill="#0076c2" stroke="rgba(0,0,0,0)" stroke-width="1"/>
</svg>
