<svg xmlns="http://www.w3.org/2000/svg" width="10" height="16" viewBox="0 0 10 16">
  <path id="odnoklassniki" d="M14.792,10.434a7.366,7.366,0,0,1-2.922.84l.679.644L15.026,14.3c.906.893-.568,2.29-1.484,1.428-.62-.606-1.529-1.481-2.477-2.393l-2.477,2.39c-.916.859-2.39-.55-1.474-1.428.63-.606,1.529-1.481,2.477-2.384l.669-.644a7.332,7.332,0,0,1-2.942-.84C6.259,9.775,5.795,9.391,6.2,8.588c.24-.456.9-.84,1.773-.178a5.4,5.4,0,0,0,3.081.9,5.4,5.4,0,0,0,3.081-.9c.873-.659,1.529-.278,1.773.178.4.8-.062,1.187-1.12,1.846ZM6.844,4.052A4.137,4.137,0,0,1,11.055,0a4.137,4.137,0,0,1,4.211,4.052,4.136,4.136,0,0,1-4.211,4.042A4.136,4.136,0,0,1,6.844,4.052Zm2.143,0a2.07,2.07,0,0,0,4.137,0,2.07,2.07,0,0,0-4.137,0Z" transform="translate(-6.056)" fill="#7093a8"/>
</svg>
