<svg xmlns="http://www.w3.org/2000/svg" width="43.991" height="36" viewBox="0 0 43.991 36">
  <path id="Path_624" data-name="Path 624" d="M13273.6,4964.173a3.109,3.109,0,0,1-3.105-3.106v-12.676a3.109,3.109,0,0,1,3.105-3.1h2.355a2.286,2.286,0,0,1-.365-.348,2.957,2.957,0,1,1,4.678-3.62,1.043,1.043,0,1,0,1.283,0,2.957,2.957,0,1,1,4.678,3.62,2.2,2.2,0,0,1-.365.348h2.525a3.109,3.109,0,0,1,3.105,3.1v12.676a3.109,3.109,0,0,1-3.105,3.106Zm8.388-1.985h6.4a1.121,1.121,0,0,0,1.119-1.12V4952.2h-7.521Zm-9.507-1.12a1.121,1.121,0,0,0,1.119,1.12h6.4V4952.2h-7.521Zm0-12.677v1.826h17.027v-1.826a1.121,1.121,0,0,0-1.119-1.119H13273.6A1.12,1.12,0,0,0,13272.48,4948.392Zm4.854-6.031a.973.973,0,0,0-.191,1.343,7.466,7.466,0,0,0,1.96.946,7.391,7.391,0,0,0-.422-2.137.973.973,0,0,0-1.347-.152Zm5.8.152a1.217,1.217,0,1,0,1.537,1.189.972.972,0,0,0-.191-1.341.949.949,0,0,0-.591-.2A.971.971,0,0,0,13283.137,4942.513Zm12.7,17.346a17.725,17.725,0,0,0,.975-1.687l3.723,2.15-.975,1.687Zm-34.373.464,3.723-2.15a17.518,17.518,0,0,0,.975,1.687l-3.723,2.15Zm37.229-9.18c.02-.36.03-.673.03-.975s-.011-.612-.03-.974h4.3v1.949Zm-39.688,0v-1.949h4.3c-.02.36-.029.673-.029.973s.01.614.029.976Zm36.833-10.667,3.723-2.148.975,1.687-3.723,2.15A18.066,18.066,0,0,0,13295.832,4940.476Zm-34.373-.461.975-1.688,3.723,2.15a17.609,17.609,0,0,0-.975,1.688Zm7.7-8.407,1.686-.975,2.15,3.722a17.354,17.354,0,0,0-1.687.976Zm19.845,2.748,2.15-3.722,1.685.973-2.148,3.724A17.855,17.855,0,0,0,13289,4934.355Zm-8-1.911c-.3,0-.608.01-.974.031v-4.3h1.946v4.3C13281.6,4932.454,13281.291,4932.444,13281,4932.444Z" transform="translate(-13258.999 -4928.173)" fill="#fff"/>
</svg>
