<svg xmlns="http://www.w3.org/2000/svg" width="14" height="13" viewBox="0 0 14 13">
  <path id="star" d="M15.978,9.119,11.9,8.675a.234.234,0,0,1-.177-.129L10.026,4.908a.589.589,0,0,0-1.061,0L7.272,8.546a.234.234,0,0,1-.177.129l-4.081.444a.557.557,0,0,0-.324.974l3.035,2.693a.219.219,0,0,1,.074.2L4.973,16.9a.576.576,0,0,0,.854.6l3.565-1.962a.206.206,0,0,1,.221,0L13.179,17.5a.573.573,0,0,0,.854-.6l-.825-3.91a.207.207,0,0,1,.074-.2l3.035-2.693A.563.563,0,0,0,15.978,9.119Z" transform="translate(-2.498 -4.575)" fill="#7093a8"/>
</svg>
