<svg xmlns="http://www.w3.org/2000/svg" width="38.005" height="38" viewBox="0 0 38.005 38">
  <path id="Контур_443" data-name="Контур 443" d="M19.262.266A10.132,10.132,0,1,0,29.4,10.393,10.141,10.141,0,0,0,19.262.266ZM28.14,19.859a1.267,1.267,0,0,0-.841.289,12.547,12.547,0,0,1-16.065,0A1.267,1.267,0,0,0,9.9,19.976a18.348,18.348,0,0,0-3.355,1.96A15.469,15.469,0,0,0,.265,34.465a3.821,3.821,0,0,0,3.8,3.8h30.4a3.82,3.82,0,0,0,3.8-3.8,15.469,15.469,0,0,0-6.282-12.53,18.355,18.355,0,0,0-3.358-1.962,1.267,1.267,0,0,0-.49-.114Z" transform="translate(-0.265 -0.266)" fill="#a2b6c2" fill-rule="evenodd"/>
</svg>
