<svg xmlns="http://www.w3.org/2000/svg" width="16" height="10" viewBox="0 0 16 10">
  <path id="vk" d="M34.235,96.678c.11-.391,0-.678-.529-.678H31.957a.753.753,0,0,0-.76.522,15.634,15.634,0,0,1-2.15,3.766c-.407.428-.594.566-.817.566-.11,0-.279-.138-.279-.528V96.678c0-.469-.125-.678-.493-.678h-2.75a.432.432,0,0,0-.446.422c0,.444.63.547.7,1.8v2.713c0,.594-.1.7-.324.7-.594,0-2.038-2.294-2.893-4.919-.172-.509-.342-.716-.79-.716H19.2c-.5,0-.6.247-.6.522,0,.487.594,2.909,2.765,6.109A6.765,6.765,0,0,0,26.7,106c1.114,0,1.25-.262,1.25-.716,0-2.088-.1-2.284.457-2.284.258,0,.7.137,1.744,1.191C31.342,105.441,31.538,106,32.2,106h1.749c.5,0,.751-.262.606-.781-.333-1.091-2.581-3.334-2.682-3.484-.258-.35-.184-.506,0-.819A23.189,23.189,0,0,0,34.235,96.678Z" transform="translate(-18.6 -96)" fill="#7093a8"/>
</svg>
