<svg xmlns="http://www.w3.org/2000/svg" width="18" height="18" viewBox="0 0 18 18">
  <path id="arrow_circle" data-name="arrow circle" d="M13412.5-5743a8.943,8.943,0,0,0,6.364-2.636,8.942,8.942,0,0,0,2.637-6.364,8.941,8.941,0,0,0-2.637-6.365,8.939,8.939,0,0,0-6.364-2.636,8.941,8.941,0,0,0-6.365,2.636,8.942,8.942,0,0,0-2.634,6.365,8.944,8.944,0,0,0,2.634,6.364A8.945,8.945,0,0,0,13412.5-5743Zm3.687-9.817a.715.715,0,0,1,.667.8.716.716,0,0,1-.667.8h-5.438c.345.329.7.668,1,.958l.736.7.007.007a.706.706,0,0,1,.177.806.793.793,0,0,1-.7.518.658.658,0,0,1-.456-.2l-2.447-2.341-.006-.005-.528-.507a.752.752,0,0,1-.387-.706v-.035a.742.742,0,0,1,.387-.705c.866-.831,1.813-1.738,2.981-2.856a.658.658,0,0,1,.454-.2.8.8,0,0,1,.7.518.707.707,0,0,1-.177.806l-.854.817-.853.817Z" transform="translate(-13403.504 5760.999)" fill="#373737"/>
</svg>
