<svg xmlns="http://www.w3.org/2000/svg" width="15" height="14" viewBox="0 0 15 14">
  <path id="Контур_206" data-name="Контур 206" d="M13027.557-6257.858a1.626,1.626,0,0,1,1.624-1.631,1.628,1.628,0,0,1,1.626,1.63,1.626,1.626,0,0,1-1.624,1.629A1.627,1.627,0,0,1,13027.557-6257.858Zm-5.486,0a1.628,1.628,0,0,1,1.626-1.63,1.63,1.63,0,0,1,1.626,1.63,1.627,1.627,0,0,1-1.626,1.629A1.627,1.627,0,0,1,13022.07-6257.859Zm7.745-2.184h-6.32a1.821,1.821,0,0,1-1.788-1.491l-.964-5.332a.176.176,0,0,1-.011-.049l-.418-2.32h-1.817a.5.5,0,0,1-.5-.5.5.5,0,0,1,.5-.5h2.228a.5.5,0,0,1,.5.408l.424,2.337h10.859v0a.5.5,0,0,1,.392.194.5.5,0,0,1,.089.428l-1.407,5.452a1.822,1.822,0,0,1-1.761,1.364Z" transform="translate(-13017.999 6270.23)" fill="#004675"/>
</svg>
