<svg xmlns="http://www.w3.org/2000/svg" width="19.001" height="18" viewBox="0 0 19.001 18">
  <path id="Контур_170" data-name="Контур 170" d="M13030.1-6254.323a2.077,2.077,0,0,1,2.059-2.1,2.078,2.078,0,0,1,2.059,2.1,2.075,2.075,0,0,1-2.056,2.095A2.078,2.078,0,0,1,13030.1-6254.323Zm-6.949,0a2.078,2.078,0,0,1,2.061-2.1,2.079,2.079,0,0,1,2.059,2.1,2.076,2.076,0,0,1-2.059,2.095A2.078,2.078,0,0,1,13023.155-6254.325Zm9.812-2.807h-8.006a2.314,2.314,0,0,1-2.265-1.918l-1.223-6.854a.3.3,0,0,1-.012-.063l-.53-2.983h-2.3a.636.636,0,0,1-.63-.64.636.636,0,0,1,.63-.639h2.823a.629.629,0,0,1,.627.525l.537,3h13.756v.006a.629.629,0,0,1,.5.25.654.654,0,0,1,.111.55l-1.783,7.01a2.311,2.311,0,0,1-2.229,1.754Z" transform="translate(-13017.999 6270.23)" fill="#373737"/>
</svg>
