<svg xmlns="http://www.w3.org/2000/svg" width="19.001" height="19.001" viewBox="0 0 19.001 19.001">
  <g id="assortiment_icon" data-name="assortiment icon" transform="translate(-67 -254.999)">
    <rect id="Прямоугольник_212" data-name="Прямоугольник 212" width="19" height="19" transform="translate(67 255)" fill="#fff"/>
    <path id="Контур_623" data-name="Контур 623" d="M13376.5,4896h-.015a.419.419,0,0,1-.106-.018l-.006,0h0a.365.365,0,0,1-.06-.026l-9.087-4.345a.4.4,0,0,1-.224-.357v-9.5a.062.062,0,0,1,0-.014v-.018a.029.029,0,0,1,0-.009v-.005a.02.02,0,0,1,0-.008s0,0,0,0a.032.032,0,0,1,0-.009.007.007,0,0,0,0,0s0-.006,0-.01v0s0-.008,0-.012h0a.393.393,0,0,1,.117-.2h0l.006-.005a.4.4,0,0,1,.086-.057l9.105-4.354a.393.393,0,0,1,.341,0l4.552,2.177.99.473.022.011,3.54,1.693a.513.513,0,0,1,.066.041.392.392,0,0,1,.156.274h0a.049.049,0,0,1,0,.012v.017s0,.009,0,.014v9.5a.4.4,0,0,1-.226.357l-9.078,4.342a.512.512,0,0,1-.063.028.378.378,0,0,1-.118.022h-.016Zm.4-1.023,8.313-3.976v-8.622l-6.77,3.238-1.543.738Zm-9.1-3.976,8.312,3.976v-8.622l-2.771-1.325v2.263a.4.4,0,0,1-.4.4.385.385,0,0,1-.2-.057l-1.979-1.187a.394.394,0,0,1-.193-.338v-2.4l-2.77-1.325Zm3.563-5.121,1.188.713v-1.942l-1.187-.568Zm5.145-.215,8.187-3.915-2.646-1.265-8.186,3.916Zm-3.562-1.7,8.188-3.914-1.062-.508-8.186,3.915.169.081Zm-1.978-.946,8.187-3.915-2.646-1.266-8.186,3.916.879.42Z" transform="translate(-13300 -4622)" fill="#373737"/>
  </g>
</svg>
