<svg xmlns="http://www.w3.org/2000/svg" width="35" height="53" viewBox="0 0 35 53">
  <path id="led_strip" data-name="led strip" d="M14190.914-6919.625l3.355-1.855-1.335-2.211-3.357,1.856-.621-1.025,3.363-1.855h0l-.728-1.2,11.458-6.325-17.049.82v-8.429l17.049-9.412-17.049.819v-8.429l25.472-14.058.724,1.2,3.393-1.869.619,1.026-3.392,1.867,1.339,2.217,3.391-1.875.615,1.026-3.393,1.873,0,0,.7,1.149-11.518,6.36,17.051-.82v8.428l-17.051,9.42,17.051-.82v8.428l-25.408,14.029-.7-1.162,0,0-3.357,1.853Zm5.13-1.285,23.725-13.1v-6.109l-11.678,6.45h0l-1.544.852,1.544-.852-1.544.852,1.544-.852-1.544.852,1.544-.852-1.544.852,1.544-.852-1.544.852,1.544-.852-1.544.852,1.544-.852-1.544.852,1.544-.852-1.544.852,1.544-.852-1.544.852,1.544-.852-1.544.852,1.544-.852-1.544.852,1.544-.852-1.544.852,1.544-.852-1.544.852,1.544-.852-1.544.852,1.544-.852-1.544.852,1.544-.852-1.544.852,1.544-.852-1.544.852,1.544-.852-1.544.852,1.544-.852-1.544.852,1.544-.852-1.544.852,1.544-.852-1.544.852-.667.369h0l-12.6,6.955.112.182,1.061,1.757.105.174,1.4,2.331h0Zm9.838-11.535h0Zm0,0h0Zm0,0h0Zm0,0h0Zm0,0h0Zm0,0h0Zm0,0h0Zm0,0h0Zm0,0h0Zm0,0h0Zm-16.746-.312h0l16.254-.779,12.464-6.884-16.245.778Zm16.746-16.705-18.648,10.292v6.1l11.678-6.445h0l1.546-.854.517-.284.148-.083h0l18.646-10.3v-6.108l-11.692,6.458h.009l-2.2,1.218,2.2-1.218-2.2,1.218,2.2-1.218-2.2,1.218,2.2-1.218-2.2,1.218,2.2-1.218-2.2,1.218,2.2-1.218-2.2,1.218,2.2-1.218-2.2,1.218,2.2-1.218-2.2,1.218,2.2-1.218-2.2,1.218,2.2-1.218-2.2,1.218,2.2-1.218-2.2,1.218,2.2-1.218Zm-16.733-.318,16.23-.771,12.475-6.89-16.239.777Zm-1.915-6.413v6.109l11.682-6.451h0l2.211-1.227,12.655-6.983-.082-.131-.306-.506-2.262-3.754-.113-.188Zm9.819,31.239a.779.779,0,0,1,.8-.76.78.78,0,0,1,.794.76.779.779,0,0,1-.794.76A.779.779,0,0,1,14197.053-6924.954Zm3.768-2.081a.78.78,0,0,1,.794-.761.779.779,0,0,1,.795.761.779.779,0,0,1-.795.76A.779.779,0,0,1,14200.82-6927.034Zm3.771-2.081a.78.78,0,0,1,.8-.761.781.781,0,0,1,.795.761.781.781,0,0,1-.795.761A.78.78,0,0,1,14204.592-6929.115Zm3.766-2.081a.781.781,0,0,1,.795-.76.782.782,0,0,1,.8.76.782.782,0,0,1-.8.76A.781.781,0,0,1,14208.357-6931.2Zm-.263-2.463-2.213,1.22Zm4.036.384a.782.782,0,0,1,.8-.762.779.779,0,0,1,.794.762.778.778,0,0,1-.794.76A.781.781,0,0,1,14212.131-6933.275ZM14208.095-6933.666ZM14208.095-6933.666ZM14208.095-6933.666ZM14208.095-6933.666ZM14208.095-6933.666ZM14208.095-6933.666ZM14208.095-6933.666ZM14208.095-6933.666ZM14208.095-6933.666ZM14208.095-6933.666Zm7.8-1.691a.78.78,0,0,1,.8-.76.779.779,0,0,1,.793.76.779.779,0,0,1-.793.76A.779.779,0,0,1,14215.9-6935.357Zm-26.387-2.464a.781.781,0,0,1,.8-.76.781.781,0,0,1,.8.76.781.781,0,0,1-.8.76A.781.781,0,0,1,14189.512-6937.821Zm3.773-2.08a.782.782,0,0,1,.8-.762.781.781,0,0,1,.8.762.78.78,0,0,1-.8.76A.781.781,0,0,1,14193.285-6939.9Zm3.768-2.082a.779.779,0,0,1,.8-.76.78.78,0,0,1,.794.76.779.779,0,0,1-.794.76A.779.779,0,0,1,14197.053-6941.982Zm3.768-2.074a.779.779,0,0,1,.794-.76.779.779,0,0,1,.795.76.779.779,0,0,1-.795.76A.779.779,0,0,1,14200.82-6944.056Zm3.771-2.081a.78.78,0,0,1,.8-.761.781.781,0,0,1,.795.761.78.78,0,0,1-.795.76A.779.779,0,0,1,14204.592-6946.137Zm3.766-2.081a.781.781,0,0,1,.795-.76.782.782,0,0,1,.8.76.783.783,0,0,1-.8.761A.782.782,0,0,1,14208.357-6948.218Zm-.272-2.462-2.2,1.218Zm0,0-2.2,1.218Zm0,0-2.2,1.218Zm0,0-2.2,1.218Zm0,0-2.2,1.218Zm0,0-2.2,1.218Zm0,0-2.2,1.218Zm0,0-2.2,1.218Zm0,0-2.2,1.218Zm0,0h.01l-2.213,1.219Zm4.046.382a.782.782,0,0,1,.8-.761.779.779,0,0,1,.794.761.778.778,0,0,1-.794.76A.781.781,0,0,1,14212.131-6950.3Zm-4.036-.388-.01.006Zm0,0-.01.006Zm0,0-.01.006Zm0,0-.01.006Zm0,0-.01.006Zm0,0-.01.006Zm0,0-.01.006Zm0,0-.01.006Zm0,0-.01.006Zm0,0-.01.006Zm0,0-.01.006Zm0,0-.01.006Zm0,0-.01.006Zm0,0-.01.006Zm0,0-.01.006Zm0,0-.01.006Zm0,0-.01.006Zm0,0-.01.006Zm0,0-.01.006Zm0,0-.01.006Zm0,0-.01.006Zm7.8-1.692a.779.779,0,0,1,.8-.76.779.779,0,0,1,.793.76.779.779,0,0,1-.793.761A.78.78,0,0,1,14215.9-6952.379Zm-26.387-2.464a.781.781,0,0,1,.8-.76.781.781,0,0,1,.8.76.781.781,0,0,1-.8.761A.782.782,0,0,1,14189.512-6954.843Zm3.773-2.081a.782.782,0,0,1,.8-.761.781.781,0,0,1,.8.761.78.78,0,0,1-.8.76A.781.781,0,0,1,14193.285-6956.923Zm3.768-2.081a.779.779,0,0,1,.8-.76.779.779,0,0,1,.794.76.78.78,0,0,1-.794.761A.779.779,0,0,1,14197.053-6959Zm3.768-2.081a.779.779,0,0,1,.794-.76.779.779,0,0,1,.795.76.779.779,0,0,1-.795.76A.779.779,0,0,1,14200.82-6961.084Zm3.771-2.08a.78.78,0,0,1,.8-.762.781.781,0,0,1,.795.762.781.781,0,0,1-.795.76A.78.78,0,0,1,14204.592-6963.165Zm3.766-2.082a.781.781,0,0,1,.795-.76.782.782,0,0,1,.8.76.783.783,0,0,1-.8.761A.782.782,0,0,1,14208.357-6965.246Z" transform="translate(-14186.001 6971.6)" fill="#373737"/>
</svg>
