<svg xmlns="http://www.w3.org/2000/svg" width="29" height="43" viewBox="0 0 29 43">
  <path id="lamp" d="M56.279,26.248c-.557-5.489-4.667-11.9-14.415-11.9S28,20.759,27.447,26.248a16.383,16.383,0,0,0-.085,1.641,20.889,20.889,0,0,0,4.7,12.761c.113.166.224.321.313.442l.041.057a11.038,11.038,0,0,1,1.725,5.911.693.693,0,0,0,.007.115.742.742,0,0,0-.008.075v3.165a4.049,4.049,0,0,0,2.692,3.553V54.7a2.8,2.8,0,0,0,2.927,2.647h4.2A2.8,2.8,0,0,0,46.891,54.7v-.736a4.047,4.047,0,0,0,2.692-3.553V47.25c0-.025-.006-.049-.008-.075a.768.768,0,0,0,.007-.115,10.962,10.962,0,0,1,1.747-5.94c.109-.148.22-.3.313-.441a20.93,20.93,0,0,0,4.719-12.789A15.839,15.839,0,0,0,56.279,26.248ZM47.664,49.521a.939.939,0,0,0-.111-.011H36.173a.968.968,0,0,0-.111.011V48h11.6v1.517ZM44.971,54.7a.946.946,0,0,1-1.006.838h-4.2a.946.946,0,0,1-1.006-.838v-.251c.206.019.415.033.629.033h4.959c.213,0,.422-.013.628-.033Zm-.629-2.028H39.384a3.665,3.665,0,0,1-3.028-1.356H47.37A3.664,3.664,0,0,1,44.342,52.675Zm5.7-13c-.1.147-.2.285-.324.457l-.039.056a12.606,12.606,0,0,0-2,6.009H36.038a12.608,12.608,0,0,0-2-6.009s-.066-.093-.067-.1c-.1-.132-.2-.27-.315-.444A19.066,19.066,0,0,1,29.284,27.89c0-.475.026-.969.076-1.47.174-1.714,1.6-10.261,12.5-10.261s12.328,8.547,12.5,10.26c.05.5.076,1,.076,1.47A19.106,19.106,0,0,1,50.047,39.673Z" transform="translate(-27.362 -14.35)" fill="#373737"/>
</svg>
