<svg xmlns="http://www.w3.org/2000/svg" width="43" height="43" viewBox="0 0 43 43">
  <path id="bell" d="M14221.419-6686.3h-7.89a3.231,3.231,0,0,1-3.231-3.224,3.237,3.237,0,0,1,2.455-3.132v-11.156a14.752,14.752,0,0,1,11.291-14.333,4.28,4.28,0,0,1-.843-2.556,4.3,4.3,0,0,1,4.3-4.3,4.292,4.292,0,0,1,4.3,4.3,4.28,4.28,0,0,1-.843,2.556,14.751,14.751,0,0,1,11.289,14.333v11.156a3.232,3.232,0,0,1,2.454,3.132,3.223,3.223,0,0,1-3.224,3.224h-7.895a6.45,6.45,0,0,1-6.082,4.3A6.446,6.446,0,0,1,14221.419-6686.3Zm6.08,2.149a4.293,4.293,0,0,0,3.728-2.149h-7.449A4.289,4.289,0,0,0,14227.5-6684.147Zm-12.587-19.662v11.156a2.16,2.16,0,0,1-1.645,2.087,1.069,1.069,0,0,0-.812,1.044,1.071,1.071,0,0,0,1.073,1.076h27.946a1.077,1.077,0,0,0,1.073-1.076,1.078,1.078,0,0,0-.817-1.044,2.151,2.151,0,0,1-1.637-2.087v-11.156a12.6,12.6,0,0,0-12.6-12.59A12.59,12.59,0,0,0,14214.912-6703.809Zm10.44-16.889a2.146,2.146,0,0,0,2.146,2.15,2.146,2.146,0,0,0,2.148-2.15,2.146,2.146,0,0,0-2.148-2.151A2.146,2.146,0,0,0,14225.353-6720.7Zm21.5,19.153v-4.3a16.084,16.084,0,0,0-3.954-10.585,16.792,16.792,0,0,0-2.518-2.334,1.075,1.075,0,0,1-.213-1.505,1.063,1.063,0,0,1,1.5-.215,17.945,17.945,0,0,1,2.85,2.649,18.211,18.211,0,0,1,4.48,11.99v4.3a1.077,1.077,0,0,1-1.073,1.076A1.077,1.077,0,0,1,14246.851-6701.545Zm-40.854,0v-4.3a18.2,18.2,0,0,1,4.487-11.99,18.534,18.534,0,0,1,2.847-2.649,1.065,1.065,0,0,1,1.5.215,1.071,1.071,0,0,1-.213,1.505,16.458,16.458,0,0,0-2.51,2.334,16.051,16.051,0,0,0-3.962,10.585v4.3a1.073,1.073,0,0,1-1.073,1.076A1.082,1.082,0,0,1,14206-6701.545Z" transform="translate(-14205.997 6724.998)" fill="#373737"/>
</svg>
