<svg xmlns="http://www.w3.org/2000/svg" width="46" height="53" viewBox="0 0 46 53">
  <path id="nastolnie" d="M67.042,22.568a1.162,1.162,0,0,0-.682-.744L53.343,16.579a1.18,1.18,0,0,0-1.4.407l-1.17,1.648-3.16-2.184a1.18,1.18,0,0,0-1.63.284l-.145.2-1.6-1.105a1.18,1.18,0,0,0-1.631.284l-3.056,4.307a1.146,1.146,0,0,0,.287,1.61l.859.594L30.44,34.709a4.285,4.285,0,0,0-6.517,3.6,4.242,4.242,0,0,0,3.168,4.078l3.833,17.776H24.842A2.18,2.18,0,0,0,22.821,61.6l-1.638,4.851a1.627,1.627,0,0,0,.211,1.5,1.673,1.673,0,0,0,1.374.67H41.455a1.675,1.675,0,0,0,1.374-.671,1.622,1.622,0,0,0,.209-1.5L41.4,61.6a2.181,2.181,0,0,0-2.021-1.438H33.319L29.477,42.347a4.242,4.242,0,0,0,3.011-4.038,4.153,4.153,0,0,0-.452-1.88l9.669-11.39,3.035,2.1-1.17,1.65a1.144,1.144,0,0,0,.091,1.44l9.446,10.28a1.179,1.179,0,0,0,.868.379l.073,0a1.177,1.177,0,0,0,.886-.491l2.767-3.9a4.7,4.7,0,0,0,2.492.712,5.292,5.292,0,0,0,1.248-.152A5.908,5.908,0,0,0,64.85,34.7a5.783,5.783,0,0,0,1.072-3.967,4.722,4.722,0,0,0-1.81-3.281l2.765-3.9A1.149,1.149,0,0,0,67.042,22.568ZM40.521,66.309H23.7l1.294-3.835H39.227Zm3.332-47.918.586.405-1.709,2.412-.587-.405ZM28.206,40.224a1.916,1.916,0,1,1,1.94-1.916A1.93,1.93,0,0,1,28.206,40.224Zm15.677-16.5,3.343-4.713,2.2,1.52-3.343,4.713Zm19.711,7.264a3.5,3.5,0,0,1-.664,2.391,3.561,3.561,0,0,1-2.047,1.431,2.54,2.54,0,0,1-1.834-.217l3.711-5.23A2.464,2.464,0,0,1,63.594,30.985Zm-9.737,6.895-7.831-8.523,4.232-5.968,1.76-2.48h0l1.3-1.839,10.794,4.348Z" transform="translate(-21.089 -15.623)" fill="#373737"/>
</svg>
