<svg xmlns="http://www.w3.org/2000/svg" width="47" height="43" viewBox="0 0 47 43">
  <path id="Контур_128" data-name="Контур 128" d="M65.864,22.25a1.929,1.929,0,0,0-1.123.391l-5.484,3.97A3.421,3.421,0,0,0,58.1,28.26H53.8a1.168,1.168,0,0,0-1.175,1.162v.752H50.555c-6.8,0-8.6,3.709-10.335,7.3-.008.015-.016.03-.023.046l-2.951-1.4a1.182,1.182,0,0,0-1.566.548l-3.287,6.805a1.173,1.173,0,0,0-1.152.24L20.834,53.2a1.155,1.155,0,0,0,.29,1.9l3.543,1.674a6.564,6.564,0,0,0,.135,4.016,6.666,6.666,0,0,0,3.46,3.806,6.794,6.794,0,0,0,8.4-2.151l3.546,1.676a1.19,1.19,0,0,0,1.1-.046,1.161,1.161,0,0,0,.578-.927l.922-13.967a1.147,1.147,0,0,0-.536-1.037l3.287-6.8a1.15,1.15,0,0,0,.048-.888,1.163,1.163,0,0,0-.6-.662l-2.694-1.273.02-.043c1.746-3.6,2.9-5.977,8.217-5.977h2.072v1.51A1.168,1.168,0,0,0,53.8,35.171h4.294a3.422,3.422,0,0,0,1.159,1.649l5.487,3.972a1.922,1.922,0,0,0,1.122.39,1.622,1.622,0,0,0,1.595-1.755V24A1.618,1.618,0,0,0,65.864,22.25ZM29.275,62.5a4.351,4.351,0,0,1-2.257-2.483,4.268,4.268,0,0,1-.167-2.209l7.65,3.614A4.45,4.45,0,0,1,29.275,62.5Zm10.386-1.215L36.725,59.9l0,0a.006.006,0,0,1,0,0L26.65,55.137l0,0-.005,0L23.7,53.745l8.546-7.789,8.169,3.86Zm.507-14.163-5.644-2.667,2.77-5.736,5.645,2.667ZM54.976,30.584h2.95v2.262h-2.95Zm10.133,7.593-4.466-3.234a1.2,1.2,0,0,1-.367-.716V29.2a1.2,1.2,0,0,1,.367-.715l4.466-3.232Z" transform="translate(-20.455 -22.25)" fill="#373737"/>
</svg>
