<svg xmlns="http://www.w3.org/2000/svg" width="34" height="43" viewBox="0 0 34 43">
  <path id="outdoor" d="M54.379,23.521a1.468,1.468,0,0,0-.849.291l-4.148,2.965a2.456,2.456,0,0,0-.734.889h-.294V18.781c0-4.1-3.992-7.432-8.9-7.432-4.78,0-8.681,3.165-8.883,7.115H28.92a.878.878,0,0,0-.888.867v2.342a.848.848,0,0,0,.052.283H26.709a.878.878,0,0,0-.888.867v2.69h-.343a.887.887,0,0,0-.844.6l-3,8.926a.85.85,0,0,0,.125.78.893.893,0,0,0,.72.359h1.4V48.8h-.6a.891.891,0,0,0-.767.43.849.849,0,0,0-.007.864L24.7,53.908a.892.892,0,0,0,.773.441H37.45a.893.893,0,0,0,.773-.441l2.208-3.816a.846.846,0,0,0-.006-.864.892.892,0,0,0-.767-.43h-.6V36.174h1.408a.878.878,0,0,0,.888-.867.85.85,0,0,0-.1-.4l-2.96-8.8a.886.886,0,0,0-.844-.6h-.343v-2.69a.878.878,0,0,0-.888-.867H34.843a.834.834,0,0,0,.053-.283V19.331a.878.878,0,0,0-.888-.867h-1.66c.208-2.993,3.31-5.38,7.1-5.38,3.929,0,7.125,2.556,7.125,5.7v8.885h-.888a.878.878,0,0,0-.888.867v4.108a.878.878,0,0,0,.888.867h2.96a2.465,2.465,0,0,0,.734.889l4.148,2.964a1.466,1.466,0,0,0,.849.292,1.218,1.218,0,0,0,1.206-1.31V24.832A1.218,1.218,0,0,0,54.379,23.521ZM26.12,27.248h4.456v7.191H23.7Zm2.962,13.324h4.779V43.1a2.39,2.39,0,0,1-4.779,0Zm4.779-1.735H29.082V36.174h4.779Zm3.071,13.776H26l-1.2-2.081H38.137Zm.349-3.815H25.646V36.174h1.659V43.1a4.167,4.167,0,0,0,8.333,0V36.174h1.643V48.8Zm1.945-14.359H32.353v-7.19h4.455Zm-3.9-8.925H27.6V23.691h7.735Zm-2.159-3.557H29.755a.82.82,0,0,0,.053-.283V20.2h3.313v1.475A.834.834,0,0,0,33.173,21.956Zm13.4,7.445h1.8v2.373h-1.8Zm7.231,6.009L50.432,33a.9.9,0,0,1-.278-.534V28.712a.9.9,0,0,1,.278-.534l3.377-2.413Z" transform="translate(-21.585 -11.349)" fill="#373737"/>
</svg>
