<svg xmlns="http://www.w3.org/2000/svg" width="20" height="53" viewBox="0 0 20 53">
  <path id="torch" d="M14209.838-6844.414a2.072,2.072,0,0,1-2.043-2.086v-28.766a2.085,2.085,0,0,0-1.045-1.812l-.645-.375a4.17,4.17,0,0,1-2.09-3.625v-14.555a1.781,1.781,0,0,1,1.752-1.781h16.482a1.784,1.784,0,0,1,1.766,1.781v14.555a4.171,4.171,0,0,1-2.089,3.625l-.645.375a2.085,2.085,0,0,0-1.045,1.813v28.766a2.075,2.075,0,0,1-2.059,2.086Zm-.354-2.086a.351.351,0,0,0,.354.359h8.341a.342.342,0,0,0,.354-.359v-4.531h-9.048Zm-3.778-34.578a2.426,2.426,0,0,0,1.213,2.117v.016l.661.367a3.8,3.8,0,0,1,1.9,3.313v22.523h9.048v-21.5h-6.7a.86.86,0,0,1-.845-.859.85.85,0,0,1,.845-.859h6.789a3.825,3.825,0,0,1,1.813-2.617l.661-.367a2.451,2.451,0,0,0,1.229-2.133v-7.781h-16.62Zm0-14.555v5.047h16.62v-5.047l-16.559-.062Zm6.851,31.8v-7.555h2.657v7.555Z" transform="translate(-14204.016 6897.414)" fill="#373737"/>
</svg>
