<svg xmlns="http://www.w3.org/2000/svg" width="43" height="43" viewBox="0 0 43 43">
  <path id="light" d="M14213.911-7061a.9.9,0,0,1-.721-.361.894.894,0,0,1-.138-.792l3.023-10.041-8.924,2.647a.9.9,0,0,1-.257.037.887.887,0,0,1-.534-.177.9.9,0,0,1-.361-.719V-7094.6a.9.9,0,0,1,.361-.717.893.893,0,0,1,.791-.14l8.924,2.647-3.023-10.041a.893.893,0,0,1,.138-.792.9.9,0,0,1,.721-.363h27.18a.9.9,0,0,1,.719.363.9.9,0,0,1,.139.792l-3.024,10.041,8.928-2.647a.893.893,0,0,1,.789.14.894.894,0,0,1,.359.717v24.188a.9.9,0,0,1-.359.719.9.9,0,0,1-.536.177.873.873,0,0,1-.253-.037l-8.928-2.647,3.023,10.041a.894.894,0,0,1-.138.792.892.892,0,0,1-.719.361Zm1.2-1.792h24.77l-2.967-9.854h-18.834Zm23.365-28.012v16.608l8.728,2.59v-21.787Zm-30.688,19.2,8.729-2.59v-16.608l-8.729-2.589Zm28.9-2.831v-16.126h-18.375v16.126Zm.23-17.917,2.967-9.854h-24.77l2.969,9.854Zm-15.136,9.853a5.561,5.561,0,0,1,5.718-5.374,5.561,5.561,0,0,1,5.718,5.374,5.56,5.56,0,0,1-5.718,5.375A5.56,5.56,0,0,1,14221.782-7082.5Zm1.792,0a3.772,3.772,0,0,0,3.926,3.584,3.771,3.771,0,0,0,3.927-3.584,3.771,3.771,0,0,0-3.927-3.583A3.771,3.771,0,0,0,14223.574-7082.5Z" transform="translate(-14206 7104.001)" fill="#373737"/>
</svg>
