<svg xmlns="http://www.w3.org/2000/svg" width="56" height="14" viewBox="0 0 56 14">
  <path id="Контур_228" data-name="Контур 228" d="M12619.4-6422.012c-1.526-.012-3.128-.024-3.109.006h-8.162a1.12,1.12,0,0,1-1.13-1.1V-6429a1.117,1.117,0,0,1,1.13-1.1h17.573v-4.8a1.092,1.092,0,0,1,1.078-1.1h16.548a1.092,1.092,0,0,1,1.078,1.1v4.8h17.464a1.116,1.116,0,0,1,1.129,1.1v5.885a1.119,1.119,0,0,1-1.129,1.1h-8.162c-.013-.006-5.813-.006-5.829,0h-9.964c-.01.009-5.828.009-5.828,0h-9.968c-.008.007-.2.009-.516.009C12621.091-6422,12620.257-6422.006,12619.4-6422.012Zm-10.146-2.2h51.488v-3.676h-51.488Zm18.6-5.9h14.392v-3.679h-14.392Z" transform="translate(-12606.999 6436)" fill="#373737"/>
</svg>
