<svg xmlns="http://www.w3.org/2000/svg" width="31" height="53" viewBox="0 0 31 53">
  <path id="Контур_119" data-name="Контур 119" d="M60.052,59.8c0-6.239-4.347-11.544-10.386-13.5V42.781a1.09,1.09,0,0,0-1.083-1.1h-.476V39.122a1.09,1.09,0,0,0-1.083-1.1H45.64V19.407h2.71a1.087,1.087,0,0,0,1.063-.888l.808-4.208A1.111,1.111,0,0,0,50,13.4a1.077,1.077,0,0,0-.835-.4H39.944a1.077,1.077,0,0,0-.835.4,1.111,1.111,0,0,0-.227.908l.808,4.208a1.086,1.086,0,0,0,1.063.888h2.71V38.024H42.079A1.09,1.09,0,0,0,41,39.122v2.561h-.476a1.09,1.09,0,0,0-1.083,1.1V46.3C33.4,48.259,29.052,53.565,29.052,59.8v2.264a1.417,1.417,0,0,0,.486,1.006C32.258,65.95,43.157,66,44.545,66h.013c1.389,0,12.287-.054,15.007-2.93a1.417,1.417,0,0,0,.486-1.006Zm-17.761-.376c.725-.026,1.474-.044,2.261-.044s1.536.018,2.261.044a2.509,2.509,0,0,1-4.523,0Zm15.543-.351c-4.016-1.818-12.089-1.887-13.276-1.887h-.013c-1.187,0-9.259.07-13.276,1.887.417-6.342,6.206-11.39,13.282-11.393S57.417,52.734,57.835,59.076ZM31.253,61.6c.644-.67,3.763-1.655,8.824-2.044a4.431,4.431,0,0,0,4.469,3.494h.013a4.43,4.43,0,0,0,4.469-3.494c5.061.389,8.18,1.374,8.824,2.044-.816.85-5.6,2.212-13.3,2.212S32.069,62.446,31.253,61.6Zm10.4-44.384L41.271,15.2h6.563l-.387,2.013ZM45.931,40.22v1.464H43.175V40.22Zm1.559,3.659v1.873a16.7,16.7,0,0,0-2.93-.265h-.016a16.707,16.707,0,0,0-2.93.265V43.879Z" transform="translate(-29.052 -13.004)" fill="#373737"/>
</svg>
