<svg xmlns="http://www.w3.org/2000/svg" width="27" height="53" viewBox="0 0 27 53">
  <path id="new_year" data-name="new year" d="M14216.443-6705.035a2.108,2.108,0,0,1-2.112-1.974l-.249-4.048a.969.969,0,0,1,.9-1.03.959.959,0,0,1,1.016.913l.244,4.044a.192.192,0,0,0,.2.146h1.866a.19.19,0,0,0,.2-.144l.266-4.056a.961.961,0,0,1,1.021-.9.966.966,0,0,1,.895,1.038l-.265,4.052a2.116,2.116,0,0,1-2.116,1.962Zm-9.909-7.383a2.523,2.523,0,0,1-2.33-1.533,2.449,2.449,0,0,1,.422-2.613,31.5,31.5,0,0,1,6.755-6.759.949.949,0,0,1,1.328.274.981.981,0,0,1-.271,1.352,30.272,30.272,0,0,0-6.3,6.329.582.582,0,0,1-.074.091.5.5,0,0,0-.105.552.606.606,0,0,0,.574.358h21.932a.6.6,0,0,0,.563-.337.488.488,0,0,0-.064-.533,25.82,25.82,0,0,0-7.3-6.916.976.976,0,0,1-.362-1.328.951.951,0,0,1,1.306-.366,27.223,27.223,0,0,1,7.905,7.456,2.434,2.434,0,0,1,.243,2.539,2.506,2.506,0,0,1-2.287,1.435Zm2.793-11.411a2.076,2.076,0,0,1-1.885-1.257,2.46,2.46,0,0,1,.274-2.534,42.216,42.216,0,0,1,5.214-6.982.954.954,0,0,1,1.359-.012.985.985,0,0,1,.012,1.377,41.357,41.357,0,0,0-4.975,6.678.747.747,0,0,1-.1.139.489.489,0,0,0-.045.507c.01.023.041.143.139.137l15.129-.552a1.04,1.04,0,0,0-.143-.838,26,26,0,0,0-4.893-6.558.978.978,0,0,1-.109-1.372.951.951,0,0,1,1.354-.109,27.664,27.664,0,0,1,5.343,7.117,2.866,2.866,0,0,1,.1,2.735,1.915,1.915,0,0,1-1.664.979l-15.063.545Zm1.779-12.587a2.334,2.334,0,0,1-.222-2.164l3.236-7.8c.149-.366.54-1.33,1.452-1.375.953-.038,1.438.917,1.675,1.377l3.9,7.117a2.332,2.332,0,0,1-.055,2.287,2.359,2.359,0,0,1-2.009,1.158l-5.908.467c-.025,0-.049,0-.076,0A2.371,2.371,0,0,1,14211.106-6736.416Zm1.554-1.415a.34.34,0,0,0,.041.328.457.457,0,0,0,.367.2l5.9-.463a.621.621,0,0,1,.073,0,.46.46,0,0,0,.41-.22.346.346,0,0,0,.008-.353l-3.749-6.848Zm5.459-9.751-1.887-1.333a.816.816,0,0,0-.931,0l-1.889,1.333a.947.947,0,0,1-1.124-.023.979.979,0,0,1-.329-1.091l.716-2.155a.671.671,0,0,0-.263-.761l-1.887-1.332a.972.972,0,0,1-.363-1.094.957.957,0,0,1,.91-.681h2.332a.75.75,0,0,0,.731-.5l.725-2.158a.959.959,0,0,1,.907-.661.966.966,0,0,1,.912.661l.715,2.158a.762.762,0,0,0,.733.5h2.332a.96.96,0,0,1,.916.681.983.983,0,0,1-.367,1.094l-1.885,1.332a.669.669,0,0,0-.269.761l.722,2.155a.985.985,0,0,1-.333,1.095.955.955,0,0,1-.579.192A.968.968,0,0,1,14218.119-6747.582Zm-1.2-3.171a2.618,2.618,0,0,1,.67-2.073,2.676,2.676,0,0,1-1.82-1.334,2.672,2.672,0,0,1-1.821,1.334,2.611,2.611,0,0,1,.67,2.073,2.7,2.7,0,0,1,1.151-.257A2.687,2.687,0,0,1,14216.917-6750.752Z" transform="translate(-14204 6758.035)" fill="#373737"/>
</svg>
