<svg xmlns="http://www.w3.org/2000/svg" width="11" height="18" viewBox="0 0 11 18">
  <path id="compare" d="M-10248.537-62.229V-73.681a1.25,1.25,0,0,1,1.271-1.228,1.247,1.247,0,0,1,1.266,1.228v11.452a1.247,1.247,0,0,1-1.266,1.228A1.25,1.25,0,0,1-10248.537-62.229Zm-4.231,0V-77.773A1.25,1.25,0,0,1-10251.5-79a1.246,1.246,0,0,1,1.265,1.228v15.544A1.246,1.246,0,0,1-10251.5-61,1.25,1.25,0,0,1-10252.769-62.229Zm-4.232,0v-5.726a1.249,1.249,0,0,1,1.271-1.228,1.247,1.247,0,0,1,1.268,1.228v5.726A1.247,1.247,0,0,1-10255.73-61,1.249,1.249,0,0,1-10257-62.229Z" transform="translate(10257.001 79.001)" fill="#373737"/>
</svg>
