<svg xmlns="http://www.w3.org/2000/svg" width="326" height="93" viewBox="0 0 326 93">
  <g id="Group_856" data-name="Group 856" transform="translate(-1071 -287)">
    <path id="graph_bg" data-name="graph bg" d="M0,33.648S32.433,30.69,72.8,25s72.652-13.655,88.661-14.11S226.106,21.359,243.346,20.9,326,0,326,0V50H0Z" transform="translate(1071 310)" fill="#f4f7f8"/>
    <path id="graph" d="M14925,3876.648h0v-1c.309-.028,33.164-3.06,72.8-8.647,18.29-2.579,34.678-5.579,49.135-8.226h.009c17.188-3.147,30.762-5.633,39.515-5.882.325-.009.667-.014,1.019-.014,8.166,0,22.99,2.378,38.683,4.9l.021,0c15.761,2.529,32.059,5.144,41.076,5.144.363,0,.71-.007,1.091-.015,8.905-.236,30.907-5.907,47.795-10.623,18.374-5.131,34.7-10.231,34.86-10.281v1l-.04.013c-1.683.523-16.925,5.253-33.923,10.015-10.52,2.948-19.687,5.344-27.246,7.122-9.437,2.219-16.357,3.469-20.57,3.715-.291.016-.569.027-.824.034-.334.01-.708.015-1.143.015-.9,0-1.9-.026-2.978-.077-9.3-.451-23.552-2.735-37.332-4.943l-.629-.1c-14.83-2.381-28.838-4.63-37.306-4.893-.541-.018-1.057-.027-1.529-.027-.3,0-.553,0-.776.009l-.248.006c-8.753.248-22.329,2.734-39.517,5.881l-.01,0c-14.457,2.648-30.843,5.648-49.132,8.226-40.081,5.65-72.473,8.618-72.795,8.647Z" transform="translate(-13854 -3532)" fill="#7093a8"/>
    <text id="История_цены" data-name="История цены" transform="translate(1071 302)" fill="#373737" font-size="14" font-family="SegoeUI, Segoe UI"><tspan x="0" y="0">История цены</tspan></text>
    <text id="_24.10.2021" data-name="24.10.2021" transform="translate(1071 377)" fill="#afafaf" font-size="13" font-family="SegoeUI-Light, Segoe UI" font-weight="300"><tspan x="0" y="0">24.10.2021</tspan></text>
    <text id="_18.04.2022" data-name="18.04.2022" transform="translate(1397 377)" fill="#afafaf" font-size="13" font-family="SegoeUI-Light, Segoe UI" font-weight="300"><tspan x="-57.491" y="0">18.04.2022</tspan></text>
    <circle id="Ellipse_64" data-name="Ellipse 64" cx="4" cy="4" r="4" transform="translate(1252 320)" fill="#7093a8"/>
    <g id="Group_857" data-name="Group 857" transform="translate(-120 -3)">
      <rect id="Rectangle_316" data-name="Rectangle 316" width="97" height="59" rx="6" transform="translate(1396 298)" fill="#373737"/>
      <text id="_23.01.-30.01" data-name="23.01.-30.01" transform="translate(1408 322)" fill="#afafaf" font-size="13" font-family="SegoeUI-Light, Segoe UI" font-weight="300"><tspan x="0" y="0">23.01.-30.01</tspan></text>
      <text id="_13_590" data-name="13 590" transform="translate(1408 342)" fill="#fff" font-size="13" font-family="SegoeUI-Bold, Segoe UI" font-weight="700"><tspan x="0" y="0">13 590</tspan></text>
      <text id="_" data-name="" transform="translate(1454 342)" fill="#fff" font-size="11" font-family="SegoeUI, Segoe UI"><tspan x="0" y="0"></tspan></text>
      <path id="Path_634" data-name="Path 634" d="M10.586,12.68s-2.849-1.442-4.835-1.289-2.669.861-3.817,1.195A1.509,1.509,0,0,1,0,10.653a15.149,15.149,0,0,0,1.016-4A11.556,11.556,0,0,0-.094,2C-.081,1.976,10.587,12.644,10.586,12.68Z" transform="translate(1397.899 318.586) rotate(45)" fill="#373737"/>
    </g>
  </g>
</svg>
