<svg xmlns="http://www.w3.org/2000/svg" xmlns:xlink="http://www.w3.org/1999/xlink" width="84" height="78" viewBox="0 0 84 78">
  <defs>
    <filter id="Compound_Path" x="0" y="0" width="84" height="78" filterUnits="userSpaceOnUse">
      <feOffset dy="3" input="SourceAlpha"/>
      <feGaussianBlur stdDeviation="3" result="blur"/>
      <feFlood flood-opacity="0.161"/>
      <feComposite operator="in" in2="blur"/>
      <feComposite in="SourceGraphic"/>
    </filter>
  </defs>
  <g transform="matrix(1, 0, 0, 1, 0, 0)" filter="url(#Compound_Path)">
    <path id="Compound_Path-2" data-name="Compound Path" d="M79.189,33.944h0C77.1,23.741,69.742,17.091,60.2,17.091A25.565,25.565,0,0,0,46.67,21.464,25.475,25.475,0,0,0,33.044,17c-9.538,0-16.986,6.65-18.894,16.944-2.725,14.12,5.632,32.8,30.43,42.634a5.617,5.617,0,0,0,4.269,0C73.557,66.558,81.823,47.882,79.189,33.944ZM46.67,69.655c-20.438-8.381-27.523-23.23-25.434-34.344,1.272-6.832,5.814-11.023,11.809-11.023,3.543,0,7.539,1.549,11.445,4.464a3.625,3.625,0,0,0,4.36,0c3.906-2.915,7.9-4.464,11.355-4.464,5.9,0,10.446,4.191,11.809,10.932C74.1,46.334,67.108,61.092,46.67,69.655Z" transform="translate(-4.66 -11)" fill="#fff"/>
  </g>
</svg>
