<svg xmlns="http://www.w3.org/2000/svg" width="16" height="14" viewBox="0 0 16 14">
  <path id="Compound_Path" data-name="Compound Path" d="M29.544,20.954h0a4.653,4.653,0,0,0-4.6-3.932,6.364,6.364,0,0,0-3.281,1.02A6.34,6.34,0,0,0,18.357,17a4.6,4.6,0,0,0-4.58,3.954c-.661,3.295,1.365,7.652,7.377,9.948a1.411,1.411,0,0,0,1.035,0C28.178,28.563,30.182,24.206,29.544,20.954ZM21.66,29.286c-4.955-1.956-6.672-5.42-6.166-8.014A2.893,2.893,0,0,1,18.357,18.7a4.916,4.916,0,0,1,2.775,1.042.906.906,0,0,0,1.057,0A4.911,4.911,0,0,1,24.941,18.7,2.924,2.924,0,0,1,27.8,21.251C28.311,23.845,26.615,27.288,21.66,29.286Z" transform="translate(-13.657 -17)" fill="#a2b6c2"/>
</svg>
