<svg xmlns="http://www.w3.org/2000/svg" width="32" height="25" viewBox="0 0 32 25">
  <path id="Контур_224" data-name="Контур 224" d="M13335.728-12663.047a17.111,17.111,0,0,1-4.622.61,15.33,15.33,0,0,1-6.906-1.493c-2.06-1.065-3.2-2.547-3.2-4.169v-11.316c0-2.073,1.889-3.913,5.048-4.924a16.832,16.832,0,0,1,5.072-.741,16.863,16.863,0,0,1,5.074.741c2.748.879,4.529,2.384,4.95,4.127a9.937,9.937,0,0,1,1.736-.153,10.122,10.122,0,0,1,9.772,7.516,10.153,10.153,0,0,1-4.71,11.408,10.071,10.071,0,0,1-5.061,1.36A10.1,10.1,0,0,1,13335.728-12663.047Zm4.981-15.6a8.632,8.632,0,0,0-2.66,1.2c-.113.075-.229.158-.337.239a8.363,8.363,0,0,0-.784.652c-.1.1-.208.2-.312.311a8.66,8.66,0,0,0-.576.662,9.22,9.22,0,0,0-.737,1.105,8.713,8.713,0,0,0-1.1,4.276,9.094,9.094,0,0,0,.076,1.151,8.673,8.673,0,0,0,1.385,3.688,9.261,9.261,0,0,0,.82,1.049,8.736,8.736,0,0,0,6.4,2.829h0a8.7,8.7,0,0,0,7.878-5.01,8.744,8.744,0,0,0-1.177-9.276,8.7,8.7,0,0,0-6.7-3.155A8.724,8.724,0,0,0,13340.709-12678.651Zm-18.287,10.553c0,1.043.889,2.1,2.441,2.915a13.891,13.891,0,0,0,6.256,1.336v-.014a16.121,16.121,0,0,0,3.563-.35c-.061-.083-.113-.167-.17-.253l-.094-.129c-.124-.189-.241-.385-.356-.58l-.062-.125c-.092-.164-.179-.328-.255-.5l-.082-.172c-.094-.207-.184-.413-.263-.627v-.039c-.076-.2-.139-.406-.205-.612l-.053-.187c-.049-.18-.1-.366-.138-.555a.928.928,0,0,1-.029-.125v-.04h-.1c-.242.024-.478.054-.712.054h-1.048a13.93,13.93,0,0,1-8.142-2.263c-.146-.111-.283-.226-.411-.339l-.078-.067-.066-.058Zm-.014-5.688a3.078,3.078,0,0,0,1.421,2.26,12.577,12.577,0,0,0,7.29,1.978h.953l.594-.054h.109c-.018-.206-.018-.42-.018-.616s.018-.393.018-.585v-.168c.01-.148.025-.3.043-.448v-.146c.025-.188.057-.382.094-.565l.021-.115c.031-.154.068-.307.1-.459l.043-.168c.043-.155.086-.31.135-.463l.033-.1c.051-.157.105-.311.164-.467l-.174.019a6.82,6.82,0,0,1-.734.07l-.334.024c-.354.035-.711.035-1.065.035a13.937,13.937,0,0,1-8.144-2.267c-.146-.109-.281-.22-.409-.334l-.078-.068-.066-.06Zm4.071-9.194c-2.5.8-4.058,2.167-4.091,3.56a3.075,3.075,0,0,0,1.423,2.257,12.568,12.568,0,0,0,7.29,1.98c.282,0,.565-.021.846-.021l.267-.021c.2-.011.373-.021.56-.043l.31-.036c.17-.021.334-.039.5-.063l.319-.058.3-.056.029-.04c.138-.229.284-.445.44-.66l.081-.11a6.959,6.959,0,0,1,.5-.623l.064-.068c.182-.2.37-.4.565-.587l.025-.021c.2-.182.405-.368.617-.538l.094-.075c.205-.164.419-.317.636-.463l.116-.074c.223-.144.446-.279.677-.407l.1-.054c.243-.129.489-.25.742-.356h.018c.251-.11.513-.2.771-.292l.064-.021c-.3-1.233-1.775-2.395-4-3.107a15.471,15.471,0,0,0-4.622-.673l-.119,0A15.485,15.485,0,0,0,13326.479-12682.981Zm15.69,18.064a.712.712,0,0,1,.712-.712,4.593,4.593,0,0,0,4.579-4.591.713.713,0,0,1,.711-.713.712.712,0,0,1,.712.713,6.017,6.017,0,0,1-6,6.017A.712.712,0,0,1,13342.17-12664.917Zm.71-15.448h0Z" transform="translate(-13320.999 12685.081)" fill="#373737"/>
</svg>
