<svg xmlns="http://www.w3.org/2000/svg" width="17" height="25" viewBox="0 0 17 25">
  <path id="Контур_221" data-name="Контур 221" d="M-15.021-35.127a4.711,4.711,0,0,0-4.616,4.787v2.077h-3.131a.66.66,0,0,0-.078,0,.771.771,0,0,0-.678.778v16.574a.768.768,0,0,0,.751.784h15.5a.768.768,0,0,0,.75-.784V-27.485a.768.768,0,0,0-.75-.778h-3.131V-30.34A4.71,4.71,0,0,0-15.021-35.127Zm0,1.562a3.145,3.145,0,0,1,3.109,3.224v2.077H-18.13V-30.34A3.145,3.145,0,0,1-15.021-33.565Zm-7,6.863h2.38v1.656a.769.769,0,0,0,.737.8.766.766,0,0,0,.77-.764c0-.012,0-.023,0-.035V-26.7h6.218v1.656a.766.766,0,0,0,.77.764.768.768,0,0,0,.737-.764V-26.7h2.375v15.012H-22.017Z" transform="translate(23.524 35.127)" fill="#373737"/>
</svg>
