<svg xmlns="http://www.w3.org/2000/svg" width="19" height="18" viewBox="0 0 19 18">
  <path id="Compound_Path" data-name="Compound Path" d="M32.522,22.083h0c-.6-3.061-2.72-5.056-5.465-5.056a7.158,7.158,0,0,0-3.9,1.312A7.135,7.135,0,0,0,19.238,17c-2.746,0-4.89,2-5.439,5.083-.784,4.236,1.621,9.839,8.76,12.79a1.557,1.557,0,0,0,1.229,0C30.9,31.867,33.281,26.265,32.522,22.083ZM23.161,32.8c-5.884-2.514-7.923-6.969-7.322-10.3.366-2.05,1.674-3.307,3.4-3.307a5.573,5.573,0,0,1,3.295,1.339,1.01,1.01,0,0,0,1.255,0,5.569,5.569,0,0,1,3.269-1.339c1.7,0,3.007,1.257,3.4,3.28C31.058,25.8,29.045,30.228,23.161,32.8Z" transform="translate(-13.657 -17)" fill="#373737"/>
</svg>
