<svg xmlns="http://www.w3.org/2000/svg" width="27.148" height="27" viewBox="0 0 27.148 27">
  <path id="minilogo" d="M13557.648-5842.048a12.9,12.9,0,0,1-4.328-2.81c-.033-.031-.059-.068-.106-.124,1.039-1.274,2.076-2.545,3.122-3.826.205.165.389.318.579.465a10.535,10.535,0,0,0,7.075,2.225,8.417,8.417,0,0,0,4.442-1.328,5.989,5.989,0,0,0,2.069-2.325.28.28,0,0,1,.287-.2q2.123.008,4.246,0h1.25c.045,0,.092.007.174.014-.032.115-.055.22-.09.32a12.09,12.09,0,0,1-9.6,8.285,16.785,16.785,0,0,1-3.352.342A16.576,16.576,0,0,1,13557.648-5842.048Zm14.527-9.632c-.333-.029-.668-.007-1.021-.007a17,17,0,0,0-.009-5.026c.421,0,.827-.006,1.232.008.048,0,.125.1.133.168a16.743,16.743,0,0,1,.051,4.528c-.028.216-.1.332-.319.332Zm4.409,0c-.353-.016-.706,0-1.073,0a17.667,17.667,0,0,0-.006-5.013h1.345c.044.385.1.766.132,1.15a16.145,16.145,0,0,1-.08,3.594c-.029.2-.1.274-.284.274Zm-2.131,0c-.372-.011-.742,0-1.119,0a17.811,17.811,0,0,0-.01-5.028c.42,0,.8-.009,1.184.008a.267.267,0,0,1,.183.179c.06,1.1.124,2.209.147,3.314a12.343,12.343,0,0,1-.123,1.292c-.015.165-.076.237-.244.237Zm-12.626-.641a16.507,16.507,0,0,1,.012-3.732c.112-.005.212-.015.312-.015q3.98,0,7.959,0c.2,0,.323.03.323.257q0,1.7,0,3.4a.348.348,0,0,1-.03.089Zm7.051-1.222c.225,0,.3-.068.286-.284a5.389,5.389,0,0,1,0-.665c.016-.266-.066-.366-.362-.363-1.107.012-2.215.01-3.322.009h-1.245c-.308,0-.617-.01-.925.007-.071,0-.2.093-.2.147-.019.367-.01.735-.01,1.143h4.274C13567.875-5853.554,13568.377-5853.553,13568.879-5853.547Zm8.965.736v-2.779h1.3a19.909,19.909,0,0,1,.034,2.779Zm-7.008-5.618a.422.422,0,0,1-.319-.136,6.2,6.2,0,0,0-4.29-3.076,10.522,10.522,0,0,0-8.357,1.465c-.263.175-.5.377-.782.585l-3.093-3.94c.109-.094.205-.178.3-.258a13.991,13.991,0,0,1,6.565-2.918c.678-.118,1.37-.161,2.056-.241.081-.009.162-.033.243-.05h1.57c.526.059,1.058.1,1.58.178,4.931.755,8.414,3.281,10.049,8.06.031.094.056.19.093.319-.113.007-.2.019-.289.019h-2.229Q13572.385-5858.423,13570.836-5858.429Z" transform="translate(-13552.562 5867.5)" fill="#0076c2" stroke="rgba(0,0,0,0)" stroke-width="1"/>
</svg>
