<svg xmlns="http://www.w3.org/2000/svg" width="19" height="19" viewBox="0 0 19 19">
  <g id="assortiment_icon" data-name="assortiment icon" transform="translate(-67 -255)">
    <rect id="Прямоугольник_212" data-name="Прямоугольник 212" width="19" height="19" transform="translate(67 255)" fill="#fff"/>
    <path id="map-marker-alt" d="M7,18.156a.039.039,0,0,0,.036-.018c.947-1.4,1.743-2.552,2.445-3.57,3.125-4.532,3.688-5.348,3.688-7.442a6.3,6.3,0,0,0-1.807-4.441,6.094,6.094,0,0,0-8.726,0A6.3,6.3,0,0,0,.83,7.125c0,2.094.563,2.91,3.688,7.442.7,1.019,1.5,2.173,2.445,3.569a.04.04,0,0,0,.037.02M7,3.312a3.814,3.814,0,0,1,0,7.626A3.814,3.814,0,0,1,7,3.312M7,19a.864.864,0,0,1-.719-.383C.983,10.8,0,10,0,7.125A7.063,7.063,0,0,1,7,0a7.063,7.063,0,0,1,7,7.125C14,10,13.017,10.8,7.719,18.617A.864.864,0,0,1,7,19ZM7,4.156A2.969,2.969,0,1,0,9.917,7.125,2.943,2.943,0,0,0,7,4.156Z" transform="translate(69.5 255)" fill="#373737"/>
  </g>
</svg>
