<svg xmlns="http://www.w3.org/2000/svg" width="17.998" height="18" viewBox="0 0 17.998 18">
  <path id="show_more" data-name="show more" d="M12162.5-7001a8.941,8.941,0,0,1-6.363-2.638,8.943,8.943,0,0,1-2.636-6.364,8.939,8.939,0,0,1,2.636-6.361,8.932,8.932,0,0,1,6.363-2.637,8.934,8.934,0,0,1,6.364,2.637,8.938,8.938,0,0,1,2.635,6.361,8.942,8.942,0,0,1-2.635,6.364A8.942,8.942,0,0,1,12162.5-7001Zm-3.335-10a1,1,0,0,0-1,1,1,1,0,0,0,1,1h6.667a1,1,0,0,0,1-1,1,1,0,0,0-1-1Z" transform="translate(-12153.501 7019.001)" fill="#373737"/>
</svg>
