<svg xmlns="http://www.w3.org/2000/svg" width="29" height="37.002" viewBox="0 0 29 37.002">
  <path id="pdf_icon" data-name="pdf icon" d="M15291.534,3389a6.525,6.525,0,0,1-6.533-6.518v-22.966a6.527,6.527,0,0,1,6.533-6.518h9.331a3.9,3.9,0,0,1,2.8,1.122l8.089,7.571a3.938,3.938,0,0,1,1.245,2.917v17.874a6.524,6.524,0,0,1-6.533,6.518Zm-5.03-30v24a4.508,4.508,0,0,0,4.512,4.5h16.037a4.511,4.511,0,0,0,4.512-4.5v-19h-6.515a4,4,0,0,1-4.012-4v-5.5h-10.022A4.507,4.507,0,0,0,15286.5,3359Zm5.745,23v-7.06h.9v.45l-.031.38h.02a1.852,1.852,0,0,1,1.7-.953,1.986,1.986,0,0,1,1.622.73,2.948,2.948,0,0,1,.6,1.922,2.809,2.809,0,0,1-.642,1.929,2.109,2.109,0,0,1-1.649.719,1.776,1.776,0,0,1-1.567-.857h-.023a1.8,1.8,0,0,1,.042.438v2.3Zm.941-4.512a2.162,2.162,0,0,0,.381,1.26,1.238,1.238,0,0,0,1.049.53c.83,0,1.46-.692,1.46-1.8,0-1.088-.58-1.81-1.43-1.81C15293.82,3375.669,15293.19,3376.291,15293.19,3377.49Zm5.369,1.9a2.892,2.892,0,0,1-.607-1.918,2.77,2.77,0,0,1,.638-1.922,2.1,2.1,0,0,1,1.648-.73,1.807,1.807,0,0,1,1.572.83h.019c-.007-.1-.019-.208-.019-.338v-2.371h.961V3380h-.923v-.511l.031-.338h-.02a1.87,1.87,0,0,1-1.68.969A2,2,0,0,1,15298.56,3379.389Zm.38-1.918c0,1.092.58,1.81,1.43,1.81.83,0,1.46-.619,1.46-1.822a2.118,2.118,0,0,0-.38-1.26,1.227,1.227,0,0,0-1.061-.531C15299.559,3375.669,15298.939,3376.361,15298.939,3377.471Zm5.568,2.529v-4.22h-.626v-.788h.626v-.223a1.9,1.9,0,0,1,.48-1.38,2.079,2.079,0,0,1,1.43-.5,2.548,2.548,0,0,1,.373.031v.842a1.222,1.222,0,0,0-.25-.023.929.929,0,0,0-1.061,1.042v.211h1.191v.788h-1.191V3380Z" transform="translate(-15284.501 -3352.499)" fill="#373737" stroke="rgba(0,0,0,0)" stroke-width="1"/>
</svg>
