<svg xmlns="http://www.w3.org/2000/svg" width="14" height="16" viewBox="0 0 14 16">
  <path id="similar" d="M3666.649-1066.291l3.735-2.293v1.076a4.9,4.9,0,0,0,3.083-2.528,4.593,4.593,0,0,0-1.531-5.76l-.228-.165.888-1.823.318.2a6.726,6.726,0,0,1,2.819,3.738,6.452,6.452,0,0,1-.395,4.658,6.873,6.873,0,0,1-3.467,3.277,7.265,7.265,0,0,1-1.486.457V-1064Zm-1.6-.189a6.728,6.728,0,0,1-2.791-3.72,6.451,6.451,0,0,1,.4-4.658,6.863,6.863,0,0,1,3.467-3.277,7.7,7.7,0,0,1,1.528-.48V-1080l3.734,2.292-3.734,2.293v-1.143a5.026,5.026,0,0,0-3.124,2.551,4.592,4.592,0,0,0,1.531,5.76l.226.164-.727,1.493-.207.394Z" transform="translate(-3661.996 1080)" fill="#a2b6c2"/>
</svg>
