<svg xmlns="http://www.w3.org/2000/svg" width="13.999" height="14" viewBox="0 0 13.999 14">
  <path id="Union_3" data-name="Union 3" d="M8189,22833a1,1,0,0,1-1-1v-4a1,1,0,0,1,1-1h4a1,1,0,0,1,1,1v4a1,1,0,0,1-1,1Zm-8.005,0a1,1,0,0,1-1-1v-4a1,1,0,0,1,1-1H8185a1,1,0,0,1,1,1v4a1,1,0,0,1-1,1Zm8.005-8a1,1,0,0,1-1-1v-4a1,1,0,0,1,1-1h4a1,1,0,0,1,1,1v4a1,1,0,0,1-1,1Zm-8.005,0a1,1,0,0,1-1-1v-4a1,1,0,0,1,1-1H8185a1,1,0,0,1,1,1v4a1,1,0,0,1-1,1Z" transform="translate(-8179.999 -22819.002)" fill="#7093a8"/>
</svg>
